<svg width="170" height="36" viewBox="0 0 170 36" fill="none" xmlns="http://www.w3.org/2000/svg">
<path d="M14.9015 3.17846C20.7779 1.06628 27.3287 2.55441 31.6638 7.01879C31.9528 7.35482 32.4345 7.45083 32.868 7.30682C33.0125 7.25881 33.157 7.1628 33.2533 7.06679C33.6868 6.63476 33.735 5.9147 33.3015 5.48266C28.3402 0.394221 20.8261 -1.33393 14.1308 1.06628C7.43556 3.51449 2.76332 9.65902 2.28164 16.7156C2.23347 17.3397 2.71515 17.8677 3.34133 17.9157C3.48583 17.9157 3.6785 17.9157 3.823 17.8677C4.25651 17.7237 4.54551 17.3397 4.54551 16.9076C4.97902 10.7151 9.02508 5.33865 14.9015 3.17846ZM3.9675 16.8596C3.9675 17.0997 3.823 17.2917 3.58216 17.3397C3.48583 17.3877 3.43766 17.3877 3.34133 17.3877C3.05232 17.3877 2.81148 17.0997 2.81148 16.7636C3.29316 9.89904 7.8209 3.94653 14.2753 1.59432C20.7779 -0.757878 28.0512 0.922267 32.8198 5.86669C33.0606 6.10671 33.0125 6.44274 32.8198 6.68276C32.7716 6.73077 32.6753 6.77877 32.6271 6.82677C32.4345 6.92278 32.1936 6.87478 32.0491 6.68276C27.5695 2.02636 20.7779 0.442225 14.7088 2.65041C8.63974 4.8586 4.40101 10.4271 3.9675 16.8596Z" fill="#B12028"/>
<path d="M38.0709 17.9641C37.8782 17.7241 37.5892 17.6281 37.3002 17.5801C37.1557 17.5801 37.0112 17.5801 36.8667 17.6281C36.4332 17.7721 36.1442 18.1561 36.1442 18.6362C35.8552 25.0207 31.7609 30.5412 25.74 32.7494C19.7191 34.9576 13.0238 33.3254 8.68873 28.621C8.39973 28.285 7.91805 28.189 7.48455 28.333C7.34004 28.381 7.19554 28.477 7.09921 28.573C6.85837 28.765 6.76203 29.0531 6.71387 29.3411C6.71387 29.6291 6.8102 29.9171 7.00287 30.1572C11.9641 35.5336 19.6227 37.4058 26.5107 34.9096C33.3986 32.4134 38.0709 26.0768 38.3599 18.7802C38.3599 18.4922 38.2635 18.2041 38.0709 17.9641ZM26.2698 34.3815C19.6227 36.7817 12.205 35.0056 7.38821 29.7731C7.19554 29.5331 7.19554 29.1971 7.43638 28.9571C7.48455 28.909 7.58088 28.861 7.62905 28.861C7.82172 28.765 8.06256 28.861 8.25523 29.0051C12.7348 33.9015 19.6709 35.5816 25.9327 33.3254C32.1944 31.0692 36.385 25.3087 36.674 18.7322C36.674 18.4922 36.8185 18.3001 37.0594 18.2521C37.1075 18.2041 37.2039 18.2041 37.3002 18.2041C37.5892 18.2041 37.83 18.4922 37.83 18.7802C37.4447 25.8368 32.9651 31.9813 26.2698 34.3815Z" fill="#B12028"/>
<path d="M25.7385 9.4673C26.0275 9.65932 26.4129 9.70732 26.75 9.56331C26.9909 9.4673 27.1835 9.32329 27.328 9.08327C27.4725 8.84325 27.5207 8.50722 27.4725 8.2192C27.4244 7.93117 27.2317 7.69115 26.9909 7.49913C23.7155 5.43496 19.7176 5.00292 16.105 6.34703C12.4443 7.69115 9.69876 10.5234 8.54275 14.2197C8.44641 14.5077 8.49458 14.7958 8.59091 15.0838C8.73541 15.3718 8.97625 15.5638 9.26526 15.6598C9.50609 15.7558 9.74693 15.7078 9.98777 15.6598C10.3249 15.5158 10.5658 15.2758 10.6621 14.9398C11.6255 11.9155 13.8893 9.56331 16.8757 8.50722C19.8139 7.40313 23.0411 7.73915 25.7385 9.4673ZM10.0841 14.7478C10.0359 14.9398 9.89143 15.0358 9.74693 15.0838C9.6506 15.1318 9.50609 15.1318 9.36159 15.0838C9.07259 14.9878 8.87992 14.6517 8.97625 14.3637C10.0841 10.8594 12.7333 8.12319 16.2014 6.82708C19.6694 5.53096 23.4747 5.963 26.6055 7.93117C26.8464 8.07518 26.9427 8.45922 26.7982 8.69924C26.75 8.79524 26.6055 8.89125 26.5092 8.93926C26.3647 8.98726 26.172 8.98726 26.0275 8.89125C23.1856 7.1151 19.7658 6.73107 16.6349 7.88317C13.4558 9.08327 11.0956 11.5795 10.0841 14.7478Z" fill="#B12028"/>
<path d="M15.3832 29.3412C18.3214 30.5893 21.5487 30.6853 24.535 29.6293C27.5214 28.5252 29.9298 26.365 31.3748 23.5327C31.6638 22.9567 31.423 22.2846 30.8931 22.0446C30.6041 21.9006 30.267 21.9006 29.978 21.9966C29.689 22.0926 29.4963 22.2846 29.3518 22.5726C28.1958 24.8768 26.1727 26.653 23.7644 27.5651C21.3078 28.4292 18.6586 28.3811 16.2502 27.3251C15.9612 27.229 15.6722 27.181 15.4314 27.2771C15.1424 27.3731 14.9016 27.6131 14.7571 27.9011C14.5162 28.4292 14.8052 29.1012 15.3832 29.3412ZM15.2869 28.0931C15.3351 27.9491 15.4796 27.8531 15.6241 27.8051C15.7686 27.7571 15.9131 27.7571 16.0576 27.8051C18.5623 28.9092 21.4042 28.9572 23.957 28.0451C26.5581 27.133 28.6293 25.2609 29.8816 22.8127C29.9298 22.6687 30.0743 22.5726 30.1706 22.5246C30.3151 22.4766 30.4596 22.4766 30.6041 22.5726C30.8931 22.7167 30.9895 23.0527 30.845 23.3407C29.4963 26.0289 27.1843 28.0931 24.2942 29.1492C21.4523 30.2053 18.3214 30.1093 15.5277 28.9092C15.2869 28.7172 15.1906 28.3811 15.2869 28.0931Z" fill="#B12028"/>
<path d="M44.2355 7.06641H43.3203V28.8603H44.2355V7.06641Z" fill="#002F87"/>
<path d="M63.2629 20.3155C63.2629 21.8997 62.9257 23.0518 62.2996 23.8198C61.6734 24.5879 60.5174 24.9239 58.8315 24.9239C57.8682 24.9239 57.0975 24.7799 56.5195 24.5399C55.9415 24.2999 55.5079 23.9159 55.1708 23.4838C54.8336 23.0518 54.6409 22.5717 54.5446 21.9957C54.4483 21.4196 54.4001 20.8916 54.4001 20.3155V7.06641H49.6797V20.3155C49.6797 23.2438 50.4504 25.356 52.0399 26.7481C53.6294 28.1402 55.8451 28.8603 58.7833 28.8603C61.6252 28.8603 63.8891 28.1402 65.4786 26.7481C67.1163 25.356 67.887 23.1958 67.887 20.3155V7.06641H63.1666V20.3155H63.2629Z" fill="#002F87"/>
<path d="M84.3111 21.3716H84.2629L75.3519 7.06641H70.6797V28.3802H75.0629V14.123H75.1593L84.0221 28.3802H88.7425V7.06641H84.3111V21.3716Z" fill="#002F87"/>
<path d="M96.2077 7.06641H91.4873V28.3802H96.2077V7.06641Z" fill="#002F87"/>
<path d="M112.537 15.9472H103.626V11.0027H113.934V7.06641H98.9053V28.3802H103.626V19.5955H112.537V15.9472Z" fill="#002F87"/>
<path d="M119.282 7.06641L111.189 28.3802H115.91L117.596 23.6278H125.592L127.229 28.3802H132.094L124.098 7.06641H119.282ZM118.848 20.1715L121.642 12.3469H121.69L124.387 20.1715H118.848Z" fill="#002F87"/>
<path d="M144.617 23.6277C143.798 24.4918 142.69 24.9238 141.245 24.9238C140.185 24.9238 139.27 24.7318 138.548 24.2998C137.825 23.9157 137.199 23.3397 136.765 22.6676C136.284 21.9956 135.995 21.2275 135.754 20.3634C135.561 19.4993 135.417 18.6353 135.417 17.7712C135.417 16.8591 135.513 15.947 135.754 15.035C135.947 14.1709 136.284 13.4028 136.765 12.6828C137.247 12.0107 137.825 11.4347 138.548 11.0506C139.27 10.6666 140.185 10.4266 141.245 10.4266C141.823 10.4266 142.401 10.5226 142.883 10.7146C143.413 10.9066 143.894 11.1466 144.328 11.4827C144.761 11.8187 145.098 12.2027 145.387 12.6828C145.676 13.1148 145.869 13.6428 145.917 14.1709H150.445C150.3 12.9228 149.963 11.8667 149.433 10.9066C148.904 9.94653 148.229 9.13046 147.362 8.50641C146.543 7.88235 145.58 7.35431 144.569 7.01828C143.509 6.68225 142.401 6.49023 141.245 6.49023C139.607 6.49023 138.114 6.77826 136.814 7.35431C135.513 7.93036 134.405 8.74643 133.49 9.75451C132.575 10.7626 131.9 11.9627 131.419 13.3068C130.937 14.6509 130.696 16.1391 130.696 17.7232C130.696 19.2593 130.937 20.6995 131.419 22.0436C131.9 23.3877 132.575 24.5398 133.49 25.5479C134.405 26.556 135.513 27.324 136.814 27.9001C138.114 28.4761 139.607 28.7641 141.245 28.7641C142.545 28.7641 143.75 28.5721 144.858 28.1881C145.965 27.8041 146.929 27.228 147.748 26.4599C148.566 25.6919 149.241 24.7798 149.722 23.7237C150.204 22.6676 150.541 21.4675 150.638 20.1234H146.11C145.917 21.6115 145.387 22.7636 144.617 23.6277Z" fill="#002F87"/>
<path d="M169.229 19.1152C168.699 18.3471 168.121 17.723 167.399 17.291C166.676 16.811 166.002 16.5229 165.28 16.2829C164.557 16.0909 164.027 15.9469 163.642 15.8509C162.293 15.5149 161.233 15.2268 160.415 15.0348C159.596 14.7948 158.921 14.6028 158.488 14.3628C158.006 14.1227 157.717 13.8827 157.525 13.6427C157.38 13.4027 157.284 13.0666 157.284 12.6346C157.284 12.1546 157.38 11.8185 157.573 11.4825C157.765 11.1465 158.006 10.9545 158.343 10.7144C158.632 10.5224 159.018 10.3784 159.355 10.2824C159.74 10.1864 160.126 10.1864 160.511 10.1864C161.089 10.1864 161.619 10.2344 162.101 10.3304C162.582 10.4264 163.016 10.6184 163.401 10.8585C163.786 11.0985 164.075 11.4345 164.316 11.8185C164.557 12.2506 164.702 12.7786 164.702 13.4027V14.2187H169.229V13.4027C169.229 12.1546 168.988 11.0985 168.507 10.2344C168.025 9.37033 167.399 8.65027 166.628 8.12222C165.809 7.54617 164.894 7.16214 163.883 6.92212C162.871 6.6821 161.763 6.53809 160.655 6.53809C159.692 6.53809 158.729 6.6821 157.765 6.92212C156.802 7.16214 155.935 7.59418 155.213 8.12222C154.442 8.65027 153.864 9.32232 153.382 10.1384C152.901 10.9545 152.66 11.9145 152.66 12.9706C152.66 13.9307 152.852 14.7948 153.238 15.4669C153.623 16.1389 154.105 16.715 154.683 17.195C155.261 17.675 155.983 18.0111 156.706 18.2991C157.476 18.5871 158.247 18.8271 159.018 19.0192C159.788 19.2592 160.559 19.4512 161.33 19.5952C162.101 19.7872 162.775 19.9792 163.353 20.2193C163.931 20.4593 164.413 20.7473 164.798 21.1313C165.183 21.4674 165.376 21.9474 165.376 22.5235C165.376 23.0515 165.231 23.4835 164.942 23.8676C164.653 24.2036 164.316 24.4916 163.883 24.6836C163.449 24.8757 163.016 25.0197 162.534 25.0677C162.052 25.1157 161.619 25.1637 161.185 25.1637C160.559 25.1637 159.981 25.0677 159.403 24.9237C158.825 24.7797 158.343 24.5396 157.91 24.2516C157.476 23.9636 157.139 23.5315 156.898 23.0515C156.658 22.5715 156.513 21.9474 156.513 21.2273V20.0752H151.985V21.2273C151.985 22.5235 152.226 23.6756 152.708 24.6356C153.19 25.5957 153.864 26.3638 154.731 26.9878C155.598 27.6119 156.561 28.0439 157.669 28.332C158.777 28.62 159.933 28.764 161.089 28.764C162.534 28.764 163.835 28.572 164.942 28.2359C166.05 27.8999 166.965 27.4199 167.736 26.7958C168.507 26.1718 169.037 25.4517 169.422 24.6356C169.807 23.8196 170 22.9075 170 21.8994C170 20.8433 169.711 19.8832 169.229 19.1152Z" fill="#002F87"/>
<path d="M9.94057 27.3242C9.79607 27.2282 9.6034 27.0842 9.4589 26.8442C9.3144 26.6522 9.26623 26.5082 9.12173 26.5562C8.97722 26.6042 9.02539 26.8442 9.07356 26.9882C9.12173 27.1322 9.4589 27.9963 9.4589 27.9963C9.4589 27.9963 9.55523 28.2843 9.69974 28.2363C9.84424 28.1883 9.79607 28.0443 9.79607 27.9963C9.79607 27.9483 9.84424 27.9003 9.8924 27.9003C10.0369 27.9483 10.4704 27.9963 10.6631 27.9003L10.5186 27.5163C10.5186 27.5163 10.1814 27.5163 9.94057 27.3242Z" fill="#002F87"/>
<path d="M17.7919 23.628C17.5992 23.676 17.7437 24.108 17.6474 24.348C17.551 24.7321 17.2139 24.9241 17.2139 24.9241L17.3584 25.3081L18.4181 24.9241L17.9845 23.724C17.9845 23.724 17.9364 23.58 17.7919 23.628Z" fill="#002F87"/>
<path d="M34.5548 18.5868C34.5066 18.5388 33.7359 17.6747 33.4469 17.3387C33.7359 17.0507 33.9286 16.6187 33.6878 15.9946C33.1579 14.6025 31.7129 15.3705 31.7129 15.3705L31.8092 15.6106C31.9537 15.6106 32.2909 15.4666 32.4354 15.8506C32.5317 16.0906 32.7726 16.7627 32.8689 17.0027C32.9652 17.2427 32.6281 17.5307 32.5317 17.5787L32.6281 17.8668C32.6281 17.8668 33.7359 19.1149 33.7841 19.2109C33.9286 19.3549 34.0249 19.3069 34.0249 19.3069L34.7956 19.0189C34.8919 18.9709 34.9883 18.8748 34.8919 18.7308C34.8438 18.5388 34.6511 18.7308 34.5548 18.5868Z" fill="#002F87"/>
<path d="M3.1004 20.3636C3.1004 20.3636 3.00407 20.0756 3.24491 19.8835C3.38941 19.7395 3.24491 19.4515 3.00407 19.5475L2.37789 19.7875C2.13706 19.8835 2.13706 20.1716 2.37789 20.1716C2.5224 20.1716 2.6669 20.2196 2.76323 20.4596L3.63025 22.8598C3.63025 22.8598 3.87108 23.4358 3.29307 23.8199L3.43758 24.2039C3.58208 24.1559 4.30459 23.6279 4.01559 22.8598L3.1004 20.3636Z" fill="#002F87"/>
<path d="M2.6191 23.6279L1.55942 20.7476C1.55942 20.7476 1.51125 20.6036 1.60759 20.5076C1.75209 20.4596 1.70392 20.0756 1.36675 20.1716L0.162565 20.6036C0.162565 20.6036 0.0180628 20.6516 0.0180628 20.7476C-0.0301046 20.8437 0.0180628 20.9877 0.162565 21.0357C0.2589 21.0357 0.307067 21.0357 0.355235 21.1797L1.36675 23.9639C1.51125 24.396 1.94476 24.54 2.3301 24.54C2.81177 24.588 3.24528 24.348 3.24528 24.348L3.10078 23.9639C2.71544 23.9639 2.6191 23.6279 2.6191 23.6279Z" fill="#002F87"/>
<path d="M5.84605 22.8598C5.79788 22.8598 5.60521 22.7158 5.55704 22.5718L4.93086 20.7956L4.30469 20.2676L5.21987 22.7158C5.21987 22.7158 5.3162 23.0038 5.12353 23.1958C4.97903 23.3398 5.07537 23.6279 5.36437 23.5319L6.03872 23.2918C6.03872 23.2918 6.23139 23.2438 6.18322 23.0518C6.08688 22.8598 5.99055 22.8598 5.84605 22.8598Z" fill="#002F87"/>
<path d="M6.1356 18.8756C6.18377 18.8756 6.37644 19.0196 6.42461 19.1637L6.80995 20.2197L7.38796 20.7478L6.76178 19.0196C6.76178 19.0196 6.66544 18.7316 6.85811 18.5876C7.00262 18.4436 6.85811 18.1556 6.61728 18.2036L5.9911 18.4916C5.9911 18.4916 5.79843 18.5396 5.8466 18.7316C5.89477 18.8756 6.03927 18.8276 6.1356 18.8756Z" fill="#002F87"/>
<path d="M5.07464 18.7803L3.77412 19.2123C3.77412 19.2123 3.62961 19.2603 3.58145 19.3083C3.53328 19.4043 3.53328 19.5483 3.72595 19.5963C3.82228 19.6443 3.91862 19.5963 4.06312 19.7404L7.24217 22.7166L8.01285 22.4286L7.48301 21.0365L5.07464 18.7803Z" fill="#002F87"/>
<path d="M10.1815 21.3243C10.037 21.3243 9.98888 21.1803 9.98888 21.1803L8.88103 18.108C8.88103 18.108 8.78469 17.916 8.88103 17.868C9.02553 17.772 8.97736 17.3879 8.64019 17.5319L7.436 17.964C7.436 17.964 7.2915 18.012 7.2915 18.108C7.24333 18.204 7.2915 18.396 7.436 18.396C7.53234 18.396 7.5805 18.396 7.62867 18.54L8.73652 21.6123C8.83286 21.8043 8.73652 21.8043 8.68836 21.9003C8.59202 22.0443 8.68836 22.1883 8.73652 22.2363C8.83286 22.2844 8.92919 22.2363 8.92919 22.2363L10.1334 21.8043C10.5669 21.6123 10.4224 21.2763 10.1815 21.3243Z" fill="#002F87"/>
<path d="M22.1271 12.5871C21.9826 12.6351 22.0308 12.7791 22.0308 12.8271C22.0308 12.8751 21.9826 12.9231 21.9344 12.8751C21.7899 12.8271 21.4528 12.8271 21.2119 12.8751L21.3564 13.2112C21.3564 13.2112 21.6454 13.2112 21.8381 13.3072C21.9344 13.3552 22.1271 13.4992 22.2716 13.7392C22.4161 13.9312 22.4643 14.0752 22.6569 14.0272C22.8014 13.9792 22.7533 13.7392 22.7051 13.5952C22.6569 13.4512 22.3679 12.7311 22.3679 12.7311C22.3679 12.7311 22.3198 12.4911 22.1271 12.5871Z" fill="#002F87"/>
<path d="M21.6935 17.4353C21.838 17.4833 22.2715 17.4833 22.4642 17.4353L22.3197 17.0513C22.3197 17.0513 21.9825 17.0513 21.7417 16.9073C21.5972 16.8112 21.4045 16.6672 21.26 16.4272C21.1155 16.2352 21.0673 16.0912 20.8747 16.1392C20.7302 16.1872 20.7783 16.4272 20.8265 16.5712C20.8747 16.7152 21.2118 17.5793 21.2118 17.5793C21.2118 17.5793 21.3082 17.8673 21.4527 17.8193C21.5972 17.7713 21.549 17.6273 21.549 17.5793C21.6453 17.4353 21.6453 17.3873 21.6935 17.4353Z" fill="#002F87"/>
<path d="M21.0666 15.7081C21.452 15.9001 21.9336 15.8521 22.1745 15.9481C22.4153 15.9961 22.7043 16.0441 22.8007 16.3321C22.9452 16.7642 22.5598 16.9562 22.5598 16.9562L22.7043 17.3402C23.186 17.1962 23.9085 16.4761 23.5713 15.42C23.2823 14.652 22.9452 14.604 22.6562 14.46C22.2708 14.3159 21.6928 14.2679 21.452 14.2199C21.2111 14.1719 21.0666 14.0759 20.9703 13.8359C20.874 13.4999 21.163 13.3079 21.163 13.3079L21.0185 12.9238C20.2478 13.2119 20.0069 14.0279 20.2478 14.7C20.4404 15.228 20.585 15.468 21.0666 15.7081Z" fill="#002F87"/>
<path d="M23.0423 12.7304C23.1386 12.7785 23.1868 12.7304 23.2349 12.9225L24.3428 15.9947C24.4391 16.1867 24.3428 16.1867 24.2946 16.2828C24.1983 16.3788 24.2946 16.5708 24.3428 16.6188C24.4391 16.6668 24.5355 16.6188 24.5355 16.6188L25.7397 16.1867C26.0768 16.0907 25.9323 15.7547 25.7397 15.8027C25.5952 15.7547 25.547 15.6107 25.547 15.6107L24.4391 12.5384C24.4391 12.5384 24.3428 12.3464 24.4873 12.2984C24.6318 12.2024 24.5836 11.8664 24.2465 11.9624L23.0423 12.3944C23.0423 12.3944 22.8978 12.4424 22.8496 12.4904C22.8496 12.5384 22.8978 12.7304 23.0423 12.7304Z" fill="#002F87"/>
<path d="M14.6128 20.0753C14.7091 20.1233 14.8055 20.0753 14.8055 20.0753L16.0578 19.6433L14.5165 15.4189L13.3123 15.851C13.3123 15.851 13.1678 15.899 13.1196 15.947C13.0715 16.043 13.1196 16.235 13.2641 16.235C13.3605 16.235 13.4086 16.235 13.4568 16.379L14.5646 19.4513C14.6128 19.5953 14.5646 19.6433 14.5165 19.6913C14.4683 19.8353 14.5165 20.0273 14.6128 20.0753Z" fill="#002F87"/>
<path d="M15.5278 15.8994C15.7687 16.0434 15.9132 16.4754 16.154 16.3794C16.2985 16.3314 16.2503 16.1874 16.2503 16.1874L15.8168 14.9873L14.709 15.3713L14.8535 15.7554C14.8535 15.7554 15.2388 15.7074 15.5278 15.8994Z" fill="#002F87"/>
<path d="M16.299 18.1557C16.4435 18.1076 16.3953 17.9636 16.3953 17.9636L15.8655 16.4755C15.8655 16.4755 15.8173 16.3795 15.6728 16.4275C15.5765 16.4755 15.5283 16.5715 15.5765 16.7155C15.6728 17.1956 15.3838 17.2436 15.3838 17.2436L15.5765 17.6756C15.5765 17.6756 15.8173 17.5796 16.0581 17.9636C16.1063 18.1076 16.1545 18.2037 16.299 18.1557Z" fill="#002F87"/>
<path d="M17.3083 19.1633L16.8748 17.9632C16.8748 17.9632 16.8267 17.8192 16.6822 17.8672C16.4895 17.9152 16.5858 18.3473 16.4895 18.6353C16.345 19.0193 16.0078 19.2113 16.0078 19.2113L16.1523 19.5954L17.3083 19.1633Z" fill="#002F87"/>
<path d="M24.9204 11.7224C24.8722 11.8184 24.9204 12.0104 25.0649 12.0104C25.1612 12.0584 25.2094 12.0104 25.2576 12.1544L26.3654 15.2267C26.4618 15.4187 26.3654 15.4187 26.3173 15.5147C26.2209 15.6107 26.3173 15.8027 26.3654 15.8507C26.4618 15.8987 26.5581 15.8507 26.5581 15.8507L27.7623 15.4187L26.2209 11.1943L25.0167 11.6264C25.1131 11.5784 24.9686 11.6264 24.9204 11.7224Z" fill="#002F87"/>
<path d="M27.3778 11.6749C27.5223 12.0589 28.1966 13.8831 28.3411 14.3631C28.4856 14.6992 28.0521 15.0832 27.9558 15.1312L28.0521 15.3712C28.7264 15.1312 28.8228 14.7472 28.9191 14.5072C29.0154 14.3151 29.2081 13.5471 28.9191 12.683C28.6301 11.8189 28.1484 11.3389 27.6186 11.0989C27.0888 10.8588 26.5107 11.0989 26.5107 11.0989L26.6071 11.2909C26.7034 11.2909 27.2333 11.2909 27.3778 11.6749Z" fill="#002F87"/>
<path d="M31.7135 9.61002C31.8098 9.65802 31.858 9.61002 31.9062 9.75403L33.014 12.8263C33.1103 13.0183 33.014 13.0183 32.9658 13.1143C32.8695 13.2103 32.9658 13.4023 33.014 13.4503C33.1103 13.4983 33.2067 13.4503 33.2067 13.4503L34.4109 13.0183L32.8695 8.79395L31.6653 9.22598C31.6653 9.22598 31.5208 9.27399 31.4727 9.32199C31.5208 9.418 31.5208 9.61002 31.7135 9.61002Z" fill="#002F87"/>
<path d="M34.2172 8.74632C33.6392 8.5063 33.1094 8.74632 33.1094 8.74632L33.1575 8.98634C33.302 8.98634 33.8319 8.98634 33.9764 9.32237C34.1209 9.75441 34.7952 11.5306 34.9397 12.0586C35.0361 12.3946 34.6507 12.7787 34.5062 12.7787L34.6026 13.0187C35.2769 12.7787 35.3732 12.3946 35.4696 12.1546C35.5659 11.9626 35.8068 11.1945 35.4696 10.3305C35.2287 9.41838 34.7471 8.93834 34.2172 8.74632Z" fill="#002F87"/>
<path d="M30.5082 12.8752L29.9783 13.0672L30.0265 13.4512L30.749 13.2112L30.9899 13.5952C31.0862 13.7872 31.038 13.7872 30.9899 13.8352C30.8935 13.9792 30.9417 14.1233 31.038 14.1713C31.1344 14.2193 31.2307 14.1713 31.2307 14.1713L32.4349 13.7392C32.7721 13.6432 32.6276 13.3072 32.4349 13.3072C32.2904 13.2592 32.2422 13.1632 32.2422 13.1632L30.171 9.75488L29.1113 10.1389L29.1595 10.667L30.5082 12.8752Z" fill="#002F87"/>
<path d="M30.3641 14.2672C30.316 14.1232 30.2196 14.1712 30.0751 14.1232C30.027 14.1232 29.9306 14.0752 29.8825 13.8352L29.5935 11.627L29.2081 11.0029C29.2081 11.0029 29.4971 13.9312 29.4971 14.0752C29.4971 14.1712 29.449 14.2672 29.3526 14.3152C29.2563 14.4112 29.16 14.4592 29.2081 14.6032C29.2563 14.6992 29.3526 14.7473 29.4971 14.6992L30.2196 14.4592C30.2196 14.5072 30.4123 14.4592 30.3641 14.2672Z" fill="#002F87"/>
<path d="M12.831 20.268L11.0006 17.3397C10.9043 17.1477 11.0006 17.1477 11.0488 17.0517C11.1451 16.9077 11.0488 16.7637 11.0006 16.7157C10.9524 16.6677 10.8079 16.7157 10.8079 16.7157L9.60376 17.1477C9.26659 17.2917 9.41109 17.5797 9.65193 17.5797C9.79643 17.5797 9.84459 17.7238 9.84459 17.7238L11.9158 21.084L12.9755 20.7L12.831 20.268Z" fill="#002F87"/>
<path d="M11.675 16.62C11.7232 16.764 11.8195 16.716 11.964 16.764C12.0122 16.764 12.1085 16.812 12.1567 17.052L12.4457 19.2122L12.8311 19.8842L12.5421 17.148C12.5421 17.148 12.5421 16.908 12.5421 16.812C12.5421 16.716 12.5421 16.62 12.6384 16.524C12.7347 16.428 12.8792 16.3799 12.8311 16.2359C12.7829 16.1399 12.6866 16.0919 12.5421 16.1399L11.8195 16.3799C11.7714 16.3799 11.5787 16.428 11.675 16.62Z" fill="#002F87"/>
<path d="M17.8398 14.2192L17.9362 14.4592C18.0325 14.4592 18.4179 14.3632 18.5142 14.6992C18.5624 14.9392 18.8514 15.6113 18.9477 15.8513C19.044 16.0913 18.755 16.3794 18.6105 16.4274L18.7069 16.6674C18.7069 16.6674 19.8147 17.9635 19.8629 18.0595C20.0074 18.2035 20.1037 18.1555 20.1037 18.1555L20.8744 17.8675C20.9707 17.8195 21.0671 17.6755 20.9707 17.5795C20.8262 17.3394 20.6817 17.5315 20.5854 17.4355C20.5372 17.3875 19.7665 16.5234 19.4775 16.1873C19.7665 15.8993 19.9592 15.4673 19.7184 14.8432C19.333 13.4511 17.8398 14.2192 17.8398 14.2192Z" fill="#002F87"/>
<path d="M16.346 15.1315C16.4423 15.1315 16.4905 15.1315 16.5387 15.2755L17.6465 18.3478C17.7428 18.5398 17.6465 18.5398 17.5983 18.6358C17.502 18.7798 17.5983 18.9238 17.6465 18.9718C17.7428 19.0198 17.8392 18.9718 17.8392 18.9718L19.0915 18.5398C19.4287 18.3958 19.2842 18.1078 19.0434 18.1078C18.8989 18.0598 18.8507 17.9637 18.8507 17.9637L17.5502 14.3154L16.346 14.7475C16.346 14.7475 16.2015 14.7955 16.1533 14.8435C16.1533 14.9395 16.2015 15.1315 16.346 15.1315Z" fill="#002F87"/>
<path d="M35.1316 7.97891C35.1316 7.97891 34.9871 8.02692 34.939 8.07492C34.8908 8.17093 34.939 8.36294 35.0835 8.36294C35.1798 8.41095 35.228 8.36295 35.2761 8.50696L36.384 11.5792C36.4322 11.7712 36.384 11.7712 36.3358 11.8672C36.2395 11.9633 36.3358 12.1553 36.384 12.2033C36.4803 12.2513 36.5767 12.2033 36.5767 12.2033L37.829 11.7712L36.2877 7.54688L35.1316 7.97891Z" fill="#002F87"/>
<path d="M37.395 8.02649C37.6359 8.1705 37.7804 8.55453 38.0212 8.50653C38.1657 8.45853 38.1175 8.26651 38.1175 8.26651L37.684 7.06641L36.5762 7.45044L36.7207 7.83447C36.6725 7.88248 37.0578 7.83447 37.395 8.02649Z" fill="#002F87"/>
<path d="M37.5393 8.50687C37.3948 8.55487 37.3948 8.65088 37.3948 8.8429C37.4912 9.32294 37.2021 9.37094 37.2021 9.37094L37.3467 9.80298C37.3467 9.80298 37.5875 9.70697 37.8283 10.091C37.9247 10.283 37.9728 10.331 38.1173 10.283C38.2618 10.235 38.2137 10.091 38.2137 10.091L37.6838 8.60287C37.6838 8.60287 37.6357 8.45886 37.5393 8.50687Z" fill="#002F87"/>
<path d="M38.552 9.99501C38.3593 10.091 38.4556 10.5231 38.3593 10.7631C38.2148 11.1471 37.9258 11.3391 37.9258 11.3391L38.0703 11.7232L39.1781 11.3391L38.7446 10.139C38.7446 10.091 38.6965 9.94701 38.552 9.99501Z" fill="#002F87"/>
<path d="M10.0366 23.3395C9.89215 23.2915 9.55497 23.2435 9.3623 23.3395L9.50681 23.6755C9.50681 23.6755 9.79581 23.6755 9.98848 23.8195C10.0848 23.8675 10.2775 24.0115 10.422 24.2515C10.5665 24.4436 10.6628 24.5876 10.8073 24.5396C10.9518 24.4916 10.8555 24.2516 10.8073 24.1075C10.7592 23.9635 10.4702 23.2435 10.4702 23.2435C10.4702 23.2435 10.422 22.9554 10.2293 23.0034C10.0848 23.0514 10.133 23.1955 10.133 23.2435C10.133 23.2915 10.0848 23.3395 10.0366 23.3395Z" fill="#002F87"/>
<path d="M10.7109 24.9248C10.3256 24.7808 9.79575 24.7328 9.55491 24.6368C9.31407 24.5888 9.21774 24.4928 9.1214 24.2527C9.02507 23.9167 9.31407 23.7247 9.31407 23.7247L9.16957 23.3887C8.39889 23.6767 8.20622 24.4928 8.44706 25.1648C8.63973 25.6449 8.73606 25.8849 9.21774 26.1249C9.60308 26.3169 10.0848 26.3169 10.3256 26.3649C10.5664 26.4609 10.8554 26.4609 10.9518 26.797C11.0963 27.229 10.7109 27.421 10.7109 27.421L10.8554 27.8051C11.3371 27.613 12.0114 26.941 11.6261 25.9329C11.3371 25.1648 10.9999 25.0688 10.7109 24.9248Z" fill="#002F87"/>
<path d="M18.4661 20.8436C18.3698 20.6516 18.4661 20.6516 18.5143 20.5556C18.6106 20.4116 18.5143 20.2676 18.4661 20.2196C18.3698 20.1716 18.2734 20.2196 18.2734 20.2196L17.1174 20.6516C16.7803 20.7476 16.9248 21.0837 17.1656 21.0356C17.2619 21.0837 17.3583 21.2277 17.3583 21.2277L19.3813 24.636L20.3928 24.2999L20.2483 23.7719L18.4661 20.8436Z" fill="#002F87"/>
<path d="M20.1035 19.7398C20.0554 19.6438 19.959 19.5958 19.8627 19.6438L19.1884 19.8839C19.1884 19.8839 18.9957 19.9319 19.0439 20.1239C19.092 20.2679 19.1884 20.2199 19.3329 20.2679C19.381 20.2679 19.4774 20.3159 19.5255 20.5559L19.8145 22.7161L20.1999 23.3882L19.8627 20.6999C19.8627 20.6999 19.8627 20.4599 19.8627 20.3639C19.8627 20.2679 19.8627 20.1719 19.959 20.0759C20.0554 19.9799 20.1999 19.9319 20.1035 19.7398Z" fill="#002F87"/>
<path d="M24.6799 22.6201C24.7762 22.6681 24.8726 22.6201 24.8726 22.6201L26.0286 22.1881L24.5354 18.0117L23.3794 18.3958C23.3794 18.3958 23.2349 18.4438 23.2349 18.4918C23.1867 18.5878 23.2349 18.7798 23.3794 18.7798C23.4757 18.7798 23.5239 18.7798 23.572 18.9238L24.6799 21.9961C24.7762 22.1881 24.6799 22.1881 24.6317 22.2841C24.5354 22.4281 24.6317 22.5721 24.6799 22.6201Z" fill="#002F87"/>
<path d="M25.7403 17.9645C25.2105 17.7245 24.6807 17.9165 24.6807 17.9165L24.7288 18.1565C24.8733 18.1565 25.4032 18.1565 25.4995 18.5405C25.644 18.9726 26.3184 20.7487 26.4629 21.2287C26.5592 21.5648 26.1739 21.9488 26.0775 21.9488L26.1257 22.1888C26.7519 21.9488 26.8482 21.5648 26.9445 21.3728C27.0409 21.1807 27.2335 20.4127 26.8964 19.5486C26.7037 18.6845 26.2702 18.2045 25.7403 17.9645Z" fill="#002F87"/>
<path d="M29.8806 20.6522L29.9769 20.8923C30.4586 20.7002 30.6031 20.3162 30.6994 20.0762C30.7957 19.8842 30.9884 19.0681 30.6512 18.204C30.3622 17.34 29.8806 16.8599 29.3507 16.5719C28.8209 16.3319 28.4355 16.5239 28.4355 16.5239L28.4837 16.7159C28.6282 16.7159 29.0136 16.8119 29.1099 17.1479C29.2544 17.58 29.9287 19.4041 30.1214 19.9322C30.2659 20.3162 29.9769 20.6042 29.8806 20.6522Z" fill="#002F87"/>
<path d="M28.1476 16.86L28.0994 16.668C28.0994 16.668 27.6659 16.764 27.4251 17.34C27.1843 17.8681 27.1361 18.5401 27.4733 19.4042C27.8104 20.2683 28.4366 20.7483 28.6293 20.8443C28.8219 20.9403 29.2073 21.1804 29.689 20.9883L29.5926 20.7483C29.4963 20.7963 29.0628 20.7003 28.9664 20.3643C28.7738 19.8362 28.0994 18.0121 27.9549 17.58C27.8104 17.244 28.0513 16.956 28.1476 16.86Z" fill="#002F87"/>
<path d="M15.9139 21.4676C16.0102 21.4196 16.0102 21.0355 15.6731 21.1316L14.5171 21.5636C14.5171 21.5636 14.3726 21.6116 14.3726 21.6596C14.3244 21.7556 14.3726 21.9476 14.5171 21.9476C14.5652 21.9476 14.6616 21.9476 14.7097 22.0916L15.8176 25.1639C15.8657 25.3559 15.8176 25.3559 15.7694 25.4039C15.6731 25.5479 15.7694 25.6919 15.8176 25.7399C15.9139 25.788 16.0102 25.7399 16.0102 25.7399L17.1663 25.3559L15.8657 21.7076C15.8657 21.7556 15.8176 21.5636 15.9139 21.4676Z" fill="#002F87"/>
<path d="M15.2393 25.6918C15.1429 25.6438 15.0466 25.5478 15.0466 25.5478L12.9754 22.1875L11.9639 22.5715L12.012 23.0996L13.3607 25.3078L12.7827 25.4998L12.8309 25.8838L13.5534 25.6438L13.7942 26.0278C13.8906 26.2198 13.8424 26.2198 13.7942 26.2679C13.6979 26.4119 13.7461 26.5559 13.8424 26.6039C13.8906 26.6519 14.0351 26.6039 14.0351 26.6039L15.2874 26.1718C15.5764 25.9798 15.4319 25.6438 15.2393 25.6918Z" fill="#002F87"/>
<path d="M12.8792 26.5078C12.831 26.5078 12.7347 26.4598 12.6865 26.2198L12.3975 24.0116L12.0603 23.4355C12.0603 23.4355 12.3494 26.3638 12.3494 26.5078C12.3494 26.6038 12.3012 26.6998 12.253 26.7478C12.1567 26.8438 12.0122 26.8918 12.0603 27.0359C12.1085 27.1319 12.2049 27.1799 12.3494 27.1319L13.0719 26.8918C13.0719 26.8918 13.2645 26.8438 13.2164 26.6518C13.12 26.5078 13.0237 26.5558 12.8792 26.5078Z" fill="#002F87"/>
<path d="M32.9644 19.308C32.8199 19.2599 32.7718 19.1639 32.7718 19.1639L31.4712 15.5156L30.2671 15.9477C30.2671 15.9477 30.1226 15.9957 30.1226 16.0437C30.0744 16.1397 30.1226 16.3317 30.2671 16.3317C30.3634 16.3317 30.4116 16.3317 30.4597 16.5237L31.5676 19.596C31.6639 19.788 31.5676 19.788 31.5194 19.884C31.4231 20.028 31.5194 20.172 31.5676 20.22C31.6639 20.268 31.7602 20.22 31.7602 20.22L32.9644 19.788C33.3498 19.596 33.2053 19.2599 32.9644 19.308Z" fill="#002F87"/>
<path d="M23.958 22.572C23.8135 22.524 23.7653 22.38 23.7653 22.38L21.6941 18.9717L20.6826 19.3557L20.7308 19.8838L22.0313 22.0919L21.5015 22.284L21.5496 22.716L22.2721 22.476L22.513 22.86C22.6093 23.052 22.5611 23.052 22.513 23.1C22.4166 23.244 22.4648 23.3401 22.5611 23.4361C22.6575 23.4841 22.7538 23.4361 22.7538 23.4361L23.958 23.004C24.2952 22.86 24.1507 22.524 23.958 22.572Z" fill="#002F87"/>
<path d="M21.8856 23.5319C21.8375 23.3878 21.693 23.4358 21.5966 23.3878C21.5485 23.3878 21.4521 23.3398 21.404 23.0998L21.1149 20.8916L20.7296 20.2676C20.7296 20.2676 21.0186 23.2438 21.0186 23.3398C21.0186 23.4358 20.9704 23.5319 20.8741 23.5799C20.7778 23.6759 20.6814 23.7239 20.7296 23.9159C20.7778 24.0119 20.8741 24.0599 20.9704 24.0119L21.693 23.7719C21.7411 23.7239 21.9338 23.6759 21.8856 23.5319Z" fill="#002F87"/>
<path d="M8.49578 11.675C8.59211 11.723 8.68845 11.723 8.78478 11.675C8.88112 11.675 8.92928 11.627 9.02562 11.531C9.07379 11.483 9.17012 11.387 9.21829 11.291C9.26646 11.1949 9.31462 11.0989 9.36279 11.0029C9.41096 10.9069 9.41096 10.8109 9.36279 10.7149C9.36279 10.6189 9.31462 10.5229 9.21829 10.4749C9.12195 10.3789 9.02562 10.3309 8.88112 10.2349L7.62876 9.4668L7.33976 9.99484L8.73661 10.8589C8.83295 10.9069 8.88112 10.9549 8.88112 11.0029C8.88112 11.0509 8.88112 11.0989 8.88112 11.1469C8.83295 11.1949 8.83295 11.2429 8.78478 11.2429C8.73661 11.2429 8.68845 11.2429 8.59211 11.1469L7.19525 10.2829L6.90625 10.8109L8.1586 11.579C8.25494 11.627 8.39944 11.675 8.49578 11.675Z" fill="#002F87"/>
<path d="M11.0003 8.93814L10.0369 7.93005L11.2893 8.65011L11.7709 8.21808L10.1814 6.58594L9.7479 6.96997L10.7594 7.97806L9.50706 7.258L9.02539 7.69003L10.6149 9.32217L11.0003 8.93814Z" fill="#002F87"/>
<path d="M12.3646 4.97944L11.876 5.28711L13.0851 7.1945L13.5738 6.88683L12.3646 4.97944Z" fill="#002F87"/>
<path d="M15.6241 5.91485L15.2869 5.05078L15.9613 4.81076L15.8167 4.37872L15.1424 4.61874L14.9979 4.23471L15.7204 3.99469L15.5277 3.51465L14.2754 3.99469L15.0942 6.10687L15.6241 5.91485Z" fill="#002F87"/>
<path d="M18.2248 4.80981L18.7065 4.76181L18.8028 5.14584L19.429 5.04983L18.562 2.88965L17.8395 2.98566L17.5986 5.28985L18.2248 5.19385V4.80981ZM18.273 3.36969L18.562 4.28177L18.2248 4.32977L18.273 3.36969Z" fill="#002F87"/>
<path d="M21.2609 5.04983C21.3573 5.09784 21.5018 5.14584 21.6463 5.14584C21.7426 5.14584 21.8389 5.14584 21.9353 5.14584C22.0316 5.14584 22.1279 5.09784 22.1761 5.04983C22.2724 5.00183 22.3206 4.90582 22.3688 4.80981C22.4169 4.7138 22.4651 4.56979 22.4651 4.42578V4.28177L21.8871 4.23376C21.8871 4.32977 21.8871 4.42578 21.8389 4.52179C21.8389 4.56979 21.7908 4.6658 21.7908 4.6658C21.7908 4.7138 21.7426 4.7138 21.7426 4.76181C21.6944 4.76181 21.6944 4.76181 21.6463 4.76181C21.5981 4.76181 21.5499 4.76181 21.5499 4.71381C21.5499 4.6658 21.5018 4.6658 21.5018 4.56979C21.5018 4.52179 21.5018 4.42578 21.5018 4.32977C21.5018 4.23376 21.5018 4.08975 21.5499 3.94574C21.5499 3.80173 21.5981 3.65771 21.5981 3.56171C21.5981 3.4657 21.6463 3.36969 21.6463 3.32169C21.6463 3.27368 21.6944 3.22568 21.7426 3.22568C21.7908 3.22568 21.7908 3.17767 21.8389 3.22568C21.8871 3.22568 21.9353 3.27368 21.9353 3.32169C21.9353 3.36969 21.9353 3.4657 21.9353 3.60971V3.75372L22.5133 3.80173V3.65771C22.5133 3.56171 22.5133 3.4657 22.5133 3.36969C22.5133 3.27368 22.4651 3.17767 22.4169 3.12967C22.3688 3.08166 22.2724 2.98566 22.2243 2.98566C22.1279 2.93765 22.0316 2.93765 21.8871 2.88965C21.7426 2.88965 21.5981 2.88965 21.5018 2.88965C21.4054 2.93765 21.3091 2.98566 21.2128 3.08166C21.1164 3.17767 21.0683 3.27368 21.0201 3.41769C20.9719 3.56171 20.9238 3.75372 20.9238 3.94574C20.9238 4.13776 20.8756 4.32977 20.9238 4.47378C20.9238 4.6178 20.9719 4.76181 21.0201 4.85782C21.0683 4.95383 21.1646 5.00183 21.2609 5.04983Z" fill="#002F87"/>
<path d="M24.3427 5.72197C24.439 5.76997 24.5354 5.81798 24.6317 5.86598C24.8726 5.96199 25.0652 5.96199 25.2579 5.91399C25.4024 5.86598 25.5469 5.72197 25.6432 5.48195C25.6914 5.33794 25.6914 5.24193 25.6914 5.14592C25.6914 5.04991 25.6432 4.9539 25.5951 4.9059C25.5469 4.80989 25.4987 4.76189 25.4024 4.71388C25.3542 4.66588 25.2579 4.61787 25.2097 4.52187C25.1616 4.47386 25.1134 4.42586 25.0652 4.37785C25.0171 4.32985 25.0171 4.23384 25.0652 4.18584C25.0652 4.13783 25.1134 4.08983 25.1616 4.08983C25.2097 4.04182 25.2579 4.04182 25.3061 4.08983C25.3542 4.08983 25.4024 4.13783 25.4024 4.18584C25.4024 4.23384 25.4024 4.28184 25.4024 4.37785V4.42586L25.9322 4.61787C26.0286 4.37785 26.0286 4.18584 25.9322 4.04182C25.8841 3.89781 25.6914 3.8018 25.4506 3.7058C25.2097 3.60979 25.0171 3.60979 24.8726 3.7058C24.7281 3.8018 24.5836 3.94582 24.5354 4.13783C24.4872 4.28184 24.4872 4.37785 24.4872 4.47386C24.4872 4.56987 24.5354 4.66588 24.5836 4.71388C24.6317 4.76189 24.6799 4.85789 24.7762 4.9059C24.8244 4.9539 24.9207 5.00191 24.9689 5.04991C25.0171 5.09791 25.0652 5.14592 25.1134 5.19392C25.1616 5.24193 25.1616 5.28993 25.1134 5.38594C25.1134 5.43394 25.0652 5.48195 25.0171 5.52995C24.9689 5.57796 24.9207 5.57796 24.8726 5.52995C24.8244 5.52995 24.7762 5.48195 24.7762 5.43394C24.7762 5.38594 24.7762 5.33794 24.7762 5.24193V5.19392L24.2464 5.00191H24.1019C24.0537 5.09791 24.0537 5.19392 24.0537 5.28993C24.0537 5.38594 24.1019 5.43394 24.15 5.52995C24.1982 5.57796 24.2464 5.62596 24.3427 5.72197Z" fill="#002F87"/>
<path d="M19.9597 31.9322C20.0078 31.8842 20.056 31.8842 20.056 31.8362C20.1042 31.7882 20.1042 31.7402 20.1523 31.6922C20.2005 31.6442 20.2005 31.5962 20.2005 31.5002C20.2005 31.3082 20.1523 31.2122 20.056 31.0681C19.9597 30.9721 19.8152 30.8761 19.5743 30.8761L18.6592 30.8281L18.5146 33.0843L19.4298 33.1323C19.5743 33.1323 19.6707 33.1323 19.767 33.0843C19.8633 33.0363 19.9115 33.0363 20.0078 32.9403C20.056 32.8923 20.1042 32.7963 20.1523 32.7483C20.2005 32.6523 20.2005 32.5563 20.2005 32.4603C20.2005 32.4123 20.2005 32.3643 20.2005 32.2682C20.2005 32.2202 20.1523 32.1722 20.1523 32.1242C20.1042 32.0762 20.1042 32.0282 20.0078 31.9802C19.9597 31.9322 19.9115 31.9322 19.8152 31.9322C19.8633 31.9802 19.9597 31.9802 19.9597 31.9322ZM19.5262 32.7003C19.478 32.7483 19.4298 32.7483 19.3817 32.7483H19.2372L19.2853 32.2202H19.4298C19.478 32.2202 19.5262 32.2683 19.5743 32.3163C19.6225 32.3643 19.6225 32.4123 19.6225 32.5083C19.5743 32.5563 19.5743 32.6523 19.5262 32.7003ZM19.5262 31.7402C19.478 31.7882 19.4298 31.7882 19.3817 31.7882H19.2372L19.2853 31.3082H19.4298C19.478 31.3082 19.5262 31.3562 19.5743 31.4042C19.6225 31.4522 19.6225 31.5002 19.6225 31.5962C19.6225 31.6442 19.5743 31.6922 19.5262 31.7402Z" fill="#002F87"/>
<path d="M22.0302 30.8286L21.8857 33.1328L22.5119 33.0368V32.6527L22.9936 32.5567L23.1381 32.9408L23.7643 32.8448L22.8491 30.6846L22.0302 30.8286ZM22.5119 32.1727V31.2126L22.8491 32.1247L22.5119 32.1727Z" fill="#002F87"/>
<path d="M25.4022 29.868L25.7393 30.636L25.4022 30.78L25.065 30.012L24.5352 30.252L25.4022 32.3162L25.932 32.1241L25.5948 31.2601L25.932 31.1161L26.2692 31.9801L26.799 31.7401L25.932 29.6279L25.4022 29.868Z" fill="#002F87"/>
<path d="M27.663 28.62L27.1807 28.9375L28.4285 30.8201L28.9108 30.5025L27.663 28.62Z" fill="#002F87"/>
<path d="M29.1113 27.4685L30.3155 29.4846L30.749 29.0526L30.5082 28.7166L30.8454 28.3806L31.1825 28.6206L31.616 28.1885L29.6412 26.9404L29.1113 27.4685ZM29.6893 27.5645L30.46 28.1405L30.2192 28.3806L29.6893 27.5645Z" fill="#002F87"/>
</svg>
