<svg width="170" height="36" viewBox="0 0 170 36" fill="none" xmlns="http://www.w3.org/2000/svg">
<g clip-path="url(#clip0_591_118)">
<path d="M3.34267 17.9286C3.50058 17.9391 3.65901 17.9179 3.8086 17.8664C4.0126 17.7909 4.19037 17.6583 4.32053 17.4845C4.4507 17.3107 4.52772 17.1032 4.54235 16.8868C4.75646 13.8507 5.84913 10.9415 7.68816 8.51114C9.52719 6.0808 12.0338 4.23355 14.9046 3.19289C17.7754 2.15223 20.8873 1.96277 23.864 2.64743C26.8406 3.3321 29.5543 4.86155 31.6766 7.05071C31.8291 7.20627 32.0233 7.31483 32.236 7.36344C32.4487 7.41205 32.671 7.39865 32.8763 7.32485C33.0226 7.26909 33.1561 7.18456 33.2689 7.07629C33.4827 6.86818 33.6054 6.58434 33.6102 6.28656C33.615 5.98877 33.5015 5.70115 33.2945 5.48629C30.8687 2.98866 27.7689 1.24422 24.3696 0.463675C20.9702 -0.316873 17.4168 -0.100141 14.1384 1.08769C10.86 2.27553 7.99691 4.38365 5.89497 7.15743C3.79303 9.93122 2.54215 13.252 2.2934 16.7187C2.2819 16.8669 2.29999 17.0159 2.3466 17.1571C2.39322 17.2984 2.46745 17.429 2.565 17.5415C2.66255 17.6539 2.7815 17.7461 2.91497 17.8125C3.04845 17.8789 3.19381 17.9184 3.34267 17.9286ZM14.327 1.60813C17.5066 0.45887 20.9519 0.25043 24.2477 1.00793C27.5435 1.76544 30.5491 3.45655 32.902 5.87739C32.9545 5.92936 32.9961 5.99116 33.0245 6.05922C33.0529 6.12728 33.0675 6.20027 33.0675 6.27398C33.0675 6.34769 33.0529 6.42068 33.0245 6.48874C32.9961 6.5568 32.9545 6.6186 32.902 6.67057C32.845 6.7266 32.776 6.76908 32.7002 6.79485C32.598 6.83205 32.4873 6.83908 32.3812 6.81509C32.2751 6.7911 32.1782 6.73711 32.1022 6.6596C29.9047 4.38796 27.093 2.8001 24.0079 2.08844C20.9229 1.37678 17.6969 1.57188 14.7208 2.6501C11.7448 3.72831 9.1466 5.64335 7.24101 8.16314C5.33542 10.6829 4.20429 13.6993 3.9847 16.8466C3.97694 16.9547 3.93826 17.0582 3.87323 17.145C3.80821 17.2318 3.71957 17.2983 3.61782 17.3364C3.54243 17.3624 3.46269 17.3736 3.38302 17.3693C3.23369 17.3581 3.09493 17.2883 2.99725 17.1752C2.89956 17.0621 2.85094 16.915 2.86206 16.7662C3.10241 13.4072 4.31259 10.1891 6.34677 7.49963C8.38094 4.81019 11.1523 2.76418 14.327 1.60813Z" fill="white"/>
<path d="M37.2814 17.6185C37.1329 17.6113 36.9845 17.6337 36.8448 17.6843C36.6364 17.7618 36.4556 17.8989 36.3251 18.0784C36.1945 18.2578 36.1201 18.4717 36.111 18.6931C35.9732 21.8042 34.9129 24.8049 33.0639 27.3157C31.2149 29.8266 28.6604 31.735 25.723 32.7998C22.7857 33.8646 19.5975 34.038 16.5613 33.2981C13.5251 32.5581 10.7772 30.938 8.66491 28.6426C8.56744 28.5241 8.44674 28.4268 8.3102 28.3564C8.17366 28.286 8.02414 28.2442 7.8708 28.2334C7.71746 28.2226 7.56352 28.2431 7.4184 28.2936C7.27328 28.3441 7.14003 28.4236 7.02681 28.5272C6.91359 28.6308 6.82277 28.7563 6.75991 28.8961C6.69706 29.0358 6.66348 29.1869 6.66125 29.34C6.65902 29.4932 6.68817 29.6452 6.74693 29.7867C6.80568 29.9282 6.8928 30.0563 7.00296 30.1631C9.41724 32.7841 12.557 34.6335 16.0256 35.4778C19.4943 36.322 23.1363 36.1231 26.4916 34.9064C29.8469 33.6896 32.765 31.5095 34.8774 28.6414C36.9897 25.7732 38.2016 22.3458 38.36 18.7918C38.3729 18.4938 38.2666 18.2028 38.0643 17.9828C37.8621 17.7628 37.5805 17.6318 37.2814 17.6185ZM26.297 34.3776C23.0474 35.5618 19.5178 35.7573 16.1563 34.9393C12.7949 34.1212 9.75326 32.3265 7.41753 29.783C7.31672 29.6733 7.26361 29.5282 7.2698 29.3796C7.27599 29.231 7.34097 29.0908 7.45055 28.9898C7.50633 28.9394 7.57102 28.8997 7.64132 28.8728C7.7464 28.8356 7.86016 28.8299 7.96845 28.8565C8.07674 28.8832 8.17477 28.941 8.25034 29.0227C10.4386 31.3972 13.2839 33.0725 16.4271 33.8372C19.5703 34.6019 22.8704 34.4217 25.9109 33.3192C28.9513 32.2168 31.5958 30.2417 33.5104 27.6431C35.4251 25.0445 36.5241 21.9391 36.6687 18.7187C36.6727 18.6079 36.7098 18.5007 36.7751 18.4109C36.8404 18.3211 36.9311 18.2526 37.0355 18.2143C37.1059 18.1886 37.1808 18.1774 37.2557 18.1814C37.4043 18.189 37.5438 18.2546 37.6441 18.3641C37.7444 18.4736 37.7973 18.6181 37.7913 18.7662C37.6436 22.2102 36.4721 25.5329 34.4257 28.3124C32.3792 31.0919 29.5499 33.2029 26.297 34.3776Z" fill="white"/>
<path d="M8.48174 14.2403C8.41703 14.4413 8.41033 14.6563 8.4624 14.8609C8.51447 15.0655 8.62322 15.2514 8.77623 15.3974C8.92924 15.5433 9.12036 15.6435 9.32777 15.6864C9.53518 15.7294 9.75053 15.7134 9.94925 15.6403C10.1134 15.5803 10.2613 15.483 10.381 15.3561C10.5008 15.2292 10.5891 15.0762 10.639 14.9092C11.1098 13.4336 11.9142 12.0853 12.9903 10.9681C14.0663 9.85086 15.3853 8.99449 16.8457 8.46489C18.306 7.93529 19.8689 7.74658 21.414 7.91328C22.9591 8.07997 24.4452 8.59764 25.758 9.42643C25.9027 9.51988 26.0674 9.57816 26.2388 9.59657C26.4102 9.61498 26.5836 9.59301 26.7449 9.53243C26.9806 9.45001 27.1811 9.29018 27.3136 9.07919C27.3922 8.95329 27.4451 8.81315 27.4692 8.66682C27.4933 8.52049 27.4882 8.37085 27.4541 8.2265C27.42 8.08216 27.3577 7.94594 27.2706 7.82568C27.1835 7.70542 27.0734 7.60348 26.9467 7.52573C25.3418 6.51544 23.5257 5.88528 21.6381 5.68372C19.7505 5.48216 17.8417 5.71456 16.0583 6.36305C14.275 7.01155 12.6647 8.05886 11.3512 9.42446C10.0377 10.7901 9.05608 12.4376 8.48174 14.2403ZM16.2595 6.89338C17.9636 6.27017 19.789 6.0472 21.5936 6.24183C23.3983 6.43646 25.1335 7.04345 26.6642 8.01553C26.7907 8.0959 26.8802 8.22284 26.9132 8.36867C26.9462 8.5145 26.92 8.66741 26.8403 8.79408C26.8007 8.85645 26.7492 8.9104 26.6886 8.95282C26.628 8.99525 26.5596 9.02531 26.4873 9.04128C26.415 9.05725 26.3402 9.05881 26.2673 9.04586C26.1944 9.03292 26.1248 9.00574 26.0625 8.96588C24.6769 8.09111 23.1083 7.5447 21.4774 7.36871C19.8465 7.19272 18.1969 7.39182 16.6554 7.95071C15.1139 8.5096 13.7216 9.41337 12.5857 10.5925C11.4498 11.7716 10.6006 13.1946 10.1033 14.752C10.0795 14.8361 10.0357 14.9131 9.97566 14.9767C9.91564 15.0403 9.84115 15.0886 9.75847 15.1176C9.63999 15.1606 9.51008 15.1606 9.3916 15.1176C9.24922 15.0722 9.13067 14.9726 9.06191 14.8403C8.99315 14.7081 8.97977 14.5541 9.02472 14.4121C9.56924 12.689 10.5053 11.1143 11.7601 9.81025C13.0148 8.50623 14.5546 7.50808 16.2595 6.89338Z" fill="white"/>
<path d="M31.405 23.5397C31.5235 23.2751 31.5351 22.9752 31.4373 22.7023C31.3395 22.4294 31.1398 22.2046 30.8799 22.0747C30.62 21.9447 30.3198 21.9196 30.0417 22.0046C29.7637 22.0895 29.5293 22.278 29.3872 22.5308C28.2294 24.8427 26.2259 26.6241 23.7892 27.5081C21.3525 28.3921 18.6684 28.3114 16.2896 27.2826C16.0251 27.1695 15.727 27.1617 15.4568 27.2607C15.3123 27.3133 15.1799 27.3945 15.0677 27.4994C14.9555 27.6043 14.8657 27.7307 14.8038 27.8711C14.6906 28.1433 14.6891 28.4489 14.7995 28.7223C14.9099 28.9956 15.1235 29.215 15.3945 29.3332C18.3007 30.5892 21.5795 30.6887 24.5571 29.6112C27.5347 28.5337 29.9851 26.3611 31.405 23.5397ZM24.3683 29.0919C21.5257 30.1257 18.3931 30.0315 15.6183 28.8287C15.4825 28.77 15.3755 28.6603 15.3205 28.5234C15.2655 28.3865 15.2671 28.2335 15.3248 28.0977C15.3543 28.027 15.3982 27.9632 15.4538 27.9104C15.5094 27.8575 15.5754 27.8167 15.6476 27.7907C15.782 27.7377 15.9315 27.7377 16.0659 27.7907C18.5762 28.8765 21.4088 28.9625 23.9808 28.031C26.5529 27.0995 28.6689 25.2214 29.8935 22.783C29.957 22.6534 30.0689 22.5537 30.2053 22.5053C30.3129 22.4648 30.4304 22.458 30.542 22.4859C30.6536 22.5138 30.754 22.5749 30.8298 22.6611C30.9056 22.7474 30.9531 22.8546 30.9661 22.9685C30.9791 23.0824 30.9568 23.1975 30.9024 23.2984C29.5489 25.9916 27.2103 28.0651 24.3683 29.0919Z" fill="white"/>
<path d="M44.2631 7.08691H43.3496V28.8536H44.2631V7.08691Z" fill="white"/>
<path d="M63.2638 20.3268C63.2638 21.9155 62.9447 23.0828 62.3063 23.8284C61.6679 24.5741 60.511 24.9469 58.8356 24.9469C58.051 24.9811 57.2684 24.8438 56.5426 24.5448C56.0287 24.3248 55.5793 23.9782 55.2366 23.5377C54.8939 23.0972 54.6692 22.5772 54.5835 22.0264C54.4835 21.4653 54.4332 20.8966 54.4331 20.3268V7.08398H49.7334V20.3268C49.7334 23.229 50.5271 25.3758 52.1144 26.7672C53.7018 28.1586 55.9422 28.8543 58.8356 28.8543C61.6875 28.8543 63.9218 28.1537 65.5385 26.7526C67.1552 25.3514 67.9635 23.2095 67.9635 20.3268V7.08398H63.2638V20.3268Z" fill="white"/>
<path d="M84.349 21.3724H84.2903L75.3715 7.08789H70.7012V28.3794H75.1V14.1241H75.1624L84.0518 28.3794H88.7515V7.08789H84.349V21.3724Z" fill="white"/>
<path d="M96.188 7.08691H91.4883V28.3784H96.188V7.08691Z" fill="white"/>
<path d="M112.573 15.9434H103.622V11.0199H113.949V7.08691H98.9219V28.3784H103.622V19.5804H112.573V15.9434Z" fill="white"/>
<path d="M119.294 7.08398L111.223 28.3755H115.952L117.628 23.6237H125.619L127.237 28.3755H132.113L124.111 7.08398H119.294ZM118.843 20.1476L121.627 12.3328H121.686L124.383 20.1476H118.843Z" fill="white"/>
<path d="M144.608 23.6346C143.801 24.5119 142.679 24.9493 141.24 24.9468C140.31 24.9722 139.389 24.7622 138.562 24.3364C137.84 23.9463 137.224 23.3883 136.765 22.7099C136.298 22.0148 135.959 21.2425 135.763 20.429C135.552 19.575 135.446 18.6987 135.447 17.8192C135.446 16.906 135.552 15.9957 135.763 15.1071C135.954 14.274 136.293 13.4818 136.765 12.7677C137.22 12.0824 137.837 11.5188 138.562 11.1266C139.387 10.6953 140.309 10.4814 141.24 10.5052C142.364 10.5067 143.452 10.894 144.322 11.6017C144.737 11.9329 145.092 12.3322 145.372 12.7824C145.65 13.2279 145.833 13.7255 145.911 14.2444H150.46C150.347 13.0904 150 11.9712 149.44 10.9548C148.925 10.0267 148.229 9.21027 147.393 8.5533C146.548 7.9054 145.596 7.41051 144.579 7.09122C142.031 6.31427 139.29 6.44348 136.827 7.45674C135.565 8.00256 134.438 8.81727 133.525 9.84359C132.61 10.886 131.908 12.0967 131.46 13.4074C130.966 14.831 130.718 16.3277 130.726 17.8338C130.719 19.3113 130.967 20.7789 131.46 22.1726C131.909 23.4655 132.611 24.6569 133.525 25.6779C134.443 26.6865 135.569 27.4846 136.827 28.0172C138.219 28.6024 139.719 28.8924 141.229 28.8689C142.462 28.8835 143.688 28.6819 144.851 28.2731C145.92 27.8912 146.901 27.2982 147.734 26.5295C148.568 25.7528 149.24 24.8201 149.712 23.7845C150.227 22.6441 150.541 21.4236 150.64 20.1768H146.091C145.976 21.4566 145.457 22.6672 144.608 23.6346Z" fill="white"/>
<path d="M169.234 19.1167C168.762 18.3909 168.147 17.7689 167.425 17.2891C166.775 16.852 166.062 16.5144 165.312 16.2875C164.604 16.0792 164.05 15.922 163.653 15.8562C162.315 15.5151 161.232 15.2361 160.403 15.0192C159.737 14.8577 159.086 14.6388 158.458 14.3649C158.081 14.2152 157.754 13.9617 157.515 13.6339C157.344 13.3245 157.262 12.9743 157.277 12.6214C157.26 12.2221 157.365 11.8271 157.578 11.4883C157.777 11.1934 158.037 10.9443 158.341 10.7572C158.655 10.5541 159.005 10.4127 159.372 10.3405C159.746 10.2607 160.127 10.2203 160.509 10.2199C161.046 10.2165 161.582 10.2667 162.109 10.3698C162.57 10.4558 163.011 10.6255 163.411 10.8705C163.797 11.1144 164.112 11.4546 164.325 11.8574C164.574 12.3478 164.712 12.887 164.728 13.4365V14.2406H169.281V13.4292C169.314 12.338 169.071 11.2561 168.577 10.2821C168.12 9.43305 167.469 8.70305 166.676 8.15108C165.846 7.58213 164.917 7.17301 163.936 6.94487C162.882 6.69555 161.802 6.57284 160.718 6.57935C159.748 6.5805 158.782 6.7108 157.846 6.9668C156.925 7.20813 156.055 7.61169 155.277 8.15839C154.526 8.68905 153.901 9.37632 153.443 10.1724C152.957 11.0418 152.714 12.025 152.739 13.0198C152.707 13.8295 152.873 14.6347 153.222 15.3666C153.571 16.0986 154.092 16.7356 154.742 17.2233C155.363 17.6912 156.049 18.0678 156.778 18.3418C157.541 18.6325 158.322 18.8767 159.115 19.0728C159.893 19.2921 160.661 19.4907 161.419 19.6686C162.112 19.8283 162.792 20.0371 163.455 20.2936C163.992 20.4952 164.484 20.7994 164.904 21.1892C165.09 21.3719 165.234 21.5911 165.33 21.8328C165.425 22.0744 165.469 22.3333 165.458 22.5928C165.477 23.0699 165.329 23.5388 165.04 23.9196C164.759 24.2699 164.4 24.5502 163.991 24.7383C163.565 24.9405 163.111 25.0761 162.644 25.1404C162.199 25.208 161.749 25.2434 161.298 25.2464C160.693 25.2471 160.09 25.1722 159.504 25.0235C158.962 24.8898 158.449 24.6568 157.992 24.3363C157.556 24.021 157.201 23.6062 156.958 23.1264C156.682 22.5574 156.549 21.9304 156.569 21.2988V20.1657H152.02V21.2988C151.975 22.4752 152.228 23.6439 152.753 24.6981C153.232 25.6304 153.924 26.4369 154.775 27.0521C155.658 27.6866 156.654 28.148 157.71 28.4118C158.829 28.6997 159.981 28.8446 161.137 28.8431C162.438 28.865 163.735 28.6938 164.985 28.3351C165.995 28.0474 166.94 27.567 167.766 26.9205C168.482 26.34 169.051 25.6001 169.428 24.7603C169.812 23.9078 170.006 22.9825 169.997 22.0481C170.038 21.0173 169.773 19.9973 169.234 19.1167Z" fill="white"/>
<path d="M9.92019 27.8597C10.1682 27.9313 10.4316 27.9313 10.6796 27.8597L10.5365 27.4942C10.3369 27.4876 10.1429 27.4269 9.97522 27.3188C9.78315 27.1892 9.62166 27.0196 9.50195 26.8217C9.38088 26.617 9.30016 26.4781 9.15341 26.5146C9.00666 26.5512 9.0727 26.7997 9.12039 26.935C9.16809 27.0702 9.48727 27.9584 9.48727 27.9584C9.48727 27.9584 9.56065 28.2399 9.74042 28.1741C9.92019 28.1083 9.82847 27.9731 9.83214 27.9402C9.8358 27.9073 9.86882 27.8561 9.92019 27.8597Z" fill="white"/>
<path d="M17.8299 23.6269C17.6281 23.689 17.7639 24.124 17.6758 24.3579C17.599 24.5856 17.4512 24.7828 17.2539 24.9208L17.3933 25.3265L18.4609 24.9318L18.0207 23.7255C18.0207 23.7255 17.9583 23.5757 17.8299 23.6269Z" fill="white"/>
<path d="M34.0868 19.321L34.8756 19.0323C34.9024 19.0224 34.9266 19.0067 34.9467 18.9864C34.9667 18.9661 34.982 18.9416 34.9915 18.9147C35.0009 18.8879 35.0043 18.8592 35.0014 18.8309C34.9985 18.8026 34.9893 18.7752 34.9746 18.7508C34.8572 18.5279 34.6885 18.707 34.5857 18.601C34.483 18.495 33.7749 17.6725 33.4851 17.3472C33.6606 17.1744 33.7789 16.9522 33.8242 16.7105C33.8694 16.4688 33.8394 16.2191 33.7382 15.9948C33.2246 14.6022 31.7461 15.3771 31.7461 15.3771L31.8268 15.6293C31.9515 15.6074 32.2964 15.5087 32.4285 15.8596C32.5129 16.0789 32.7623 16.7843 32.8577 17.0365C32.9531 17.2887 32.6376 17.5519 32.5422 17.5921L32.6376 17.859C32.6376 17.859 33.7382 19.1273 33.8153 19.215C33.9584 19.3722 34.0868 19.321 34.0868 19.321Z" fill="white"/>
<path d="M3.1293 20.3335C3.10924 20.2499 3.11048 20.1627 3.1329 20.0797C3.15533 19.9967 3.19823 19.9206 3.25771 19.8583C3.29151 19.826 3.31273 19.7828 3.31758 19.7364C3.32243 19.69 3.31061 19.6433 3.28422 19.6047C3.25782 19.5662 3.21856 19.5382 3.17341 19.5257C3.12825 19.5133 3.08013 19.5171 3.03758 19.5367L2.41022 19.7633C2.15341 19.8583 2.19376 20.1288 2.41022 20.169C2.49435 20.1753 2.57454 20.2071 2.64009 20.26C2.70565 20.3129 2.75344 20.3844 2.7771 20.4651L3.6576 22.8739C3.72223 23.0494 3.72629 23.2414 3.66915 23.4194C3.61201 23.5975 3.49693 23.7515 3.34209 23.8571L3.4705 24.2446C3.60257 24.1897 4.34366 23.6561 4.07218 22.9031L3.1293 20.3335Z" fill="white"/>
<path d="M2.64532 23.6011L1.59972 20.6989C1.58267 20.6574 1.5761 20.6124 1.58058 20.5678C1.58506 20.5232 1.60045 20.4804 1.6254 20.4431C1.75747 20.3736 1.71712 20.0081 1.38326 20.1287L0.168895 20.5527C0.168895 20.5527 0.0404877 20.6075 0.0111375 20.688C0.00106623 20.7172 -0.00279063 20.7482 -0.000188127 20.779C0.00241438 20.8098 0.0114194 20.8398 0.0262548 20.8669C0.0410903 20.8941 0.061432 20.9179 0.0859879 20.9368C0.110544 20.9557 0.138777 20.9693 0.168895 20.9767C0.253277 20.9767 0.326652 20.9767 0.385352 21.1412L1.39793 23.9265C1.47638 24.1123 1.61126 24.269 1.78366 24.3745C1.95606 24.4801 2.15731 24.5292 2.35915 24.5149C2.68118 24.5165 2.99951 24.4466 3.29102 24.3103L3.16261 23.9228C3.05283 23.9337 2.94251 23.9081 2.84891 23.8499C2.75531 23.7917 2.68371 23.7042 2.64532 23.6011Z" fill="white"/>
<path d="M5.85214 22.8378C5.73156 22.7798 5.63262 22.6851 5.56965 22.5674L4.92394 20.7873L4.32227 20.2354L5.21745 22.6807C5.23769 22.7612 5.23826 22.8454 5.21911 22.9261C5.19996 23.0069 5.16164 23.0819 5.10738 23.1449C5.06698 23.1762 5.03976 23.2214 5.03105 23.2717C5.02235 23.3219 5.03279 23.3736 5.06034 23.4166C5.08788 23.4596 5.13053 23.4908 5.17995 23.5041C5.22937 23.5174 5.28199 23.5118 5.32751 23.4885L6.02825 23.2436C6.07773 23.2269 6.1186 23.1914 6.14196 23.1449C6.16532 23.0983 6.16928 23.0445 6.15298 22.995C6.11996 22.8598 6.00256 22.8671 5.85214 22.8378Z" fill="white"/>
<path d="M6.7141 18.2106L6.01337 18.4701C6.01337 18.4701 5.81159 18.5359 5.88863 18.704C5.96567 18.8722 6.03905 18.8283 6.17112 18.8758C6.23653 18.8947 6.29653 18.9288 6.34625 18.9751C6.39598 19.0215 6.43402 19.0789 6.45729 19.1427L6.82417 20.1844L7.42585 20.74L6.82417 19.0293C6.82417 19.0293 6.75079 18.7296 6.93056 18.5834C6.98019 18.5548 7.01637 18.5077 7.03117 18.4526C7.04596 18.3974 7.03814 18.3386 7.00944 18.2892C6.98074 18.2397 6.93349 18.2037 6.87811 18.1889C6.82272 18.1742 6.76373 18.182 6.7141 18.2106Z" fill="white"/>
<path d="M8.08563 22.5018L7.58668 21.1055L5.11392 18.7881L3.82985 19.2413C3.7636 19.2659 3.70352 19.3046 3.65375 19.3546C3.64049 19.3846 3.63403 19.4172 3.63483 19.4499C3.63563 19.4827 3.64368 19.5149 3.65839 19.5442C3.67311 19.5735 3.69413 19.5993 3.71996 19.6196C3.74579 19.6399 3.77579 19.6542 3.80784 19.6617C3.93385 19.6651 4.05516 19.7101 4.1527 19.7896L7.31519 22.7686L8.08563 22.5018Z" fill="white"/>
<path d="M7.7007 18.5103L8.80133 21.5807C8.87104 21.7634 8.80133 21.7744 8.73896 21.8475C8.70798 21.8988 8.69794 21.9601 8.71091 22.0185C8.72388 22.077 8.75887 22.1283 8.80867 22.1619C8.88571 22.2203 9.01412 22.1619 9.01412 22.1619L10.2285 21.7196C10.5954 21.6063 10.4229 21.2846 10.2285 21.2956C10.1832 21.2912 10.1403 21.2735 10.1051 21.2449C10.0699 21.2163 10.0439 21.178 10.0304 21.1348L8.92974 18.0644C8.92974 18.0644 8.85636 17.878 8.95175 17.8231C8.97343 17.8085 8.99201 17.7898 9.00641 17.768C9.02082 17.7462 9.03078 17.7218 9.03572 17.6961C9.04066 17.6705 9.04048 17.6442 9.0352 17.6186C9.02992 17.5931 9.01964 17.5688 9.00495 17.5472C8.99026 17.5256 8.97143 17.5071 8.94956 17.4927C8.92769 17.4784 8.90319 17.4684 8.87747 17.4635C8.85175 17.4586 8.82531 17.4588 8.79965 17.464C8.774 17.4693 8.74964 17.4795 8.72796 17.4942L7.50259 17.9182C7.50259 17.9182 7.37051 17.973 7.34116 18.0498C7.31181 18.1265 7.34116 18.3276 7.49892 18.3385C7.58697 18.3678 7.642 18.3422 7.7007 18.5103Z" fill="white"/>
<path d="M21.9647 12.8703C21.7299 12.8148 21.4846 12.8211 21.2529 12.8886L21.3813 13.2541C21.5725 13.2495 21.7615 13.2955 21.929 13.3873C22.0966 13.4791 22.2367 13.6135 22.3352 13.7768C22.46 13.9669 22.5407 14.1058 22.7021 14.0729C22.8635 14.04 22.7828 13.7878 22.7351 13.6526C22.6874 13.5173 22.4123 12.779 22.4123 12.779C22.4123 12.779 22.3536 12.4975 22.1701 12.5779C21.9867 12.6583 22.0711 12.7643 22.0601 12.8119C22.0491 12.8594 22.0307 12.8923 21.9647 12.8703Z" fill="white"/>
<path d="M21.7381 17.4094C21.9957 17.464 22.2619 17.464 22.5195 17.4094L22.3911 17.0219C22.1826 17.0297 21.9755 16.9844 21.7894 16.8903C21.6003 16.7585 21.4405 16.5893 21.3198 16.3932C21.1951 16.1849 21.1144 16.0643 20.9529 16.0972C20.7915 16.1301 20.8686 16.3823 20.9162 16.5175C20.9639 16.6528 21.2831 17.5263 21.2831 17.5263C21.2831 17.5263 21.3602 17.8078 21.5436 17.7457C21.727 17.6835 21.628 17.541 21.6317 17.5081C21.6353 17.4752 21.672 17.3838 21.7381 17.4094Z" fill="white"/>
<path d="M21.1796 13.3157L21.0512 12.9502C20.8806 13.0155 20.7247 13.114 20.5929 13.2401C20.461 13.3662 20.3558 13.5173 20.2833 13.6845C20.2109 13.8517 20.1727 14.0316 20.171 14.2137C20.1693 14.3958 20.2041 14.5764 20.2734 14.7449C20.3221 14.9534 20.4192 15.1476 20.5568 15.312C20.6944 15.4764 20.8688 15.6064 21.0659 15.6916C21.4309 15.8083 21.8071 15.8867 22.1885 15.9255C22.438 15.9767 22.7278 16.0206 22.8342 16.291C22.8773 16.4115 22.8745 16.5434 22.8265 16.662C22.7785 16.7805 22.6886 16.8774 22.5737 16.9344L22.7205 17.2999C22.9021 17.2315 23.0683 17.1278 23.2094 16.995C23.3506 16.8621 23.4638 16.7026 23.5426 16.5259C23.6215 16.3491 23.6643 16.1584 23.6686 15.965C23.673 15.7716 23.6388 15.5793 23.568 15.3992C23.5156 15.1737 23.4026 14.9668 23.241 14.8006C23.0794 14.6344 22.8753 14.5153 22.6508 14.4561C22.2632 14.3407 21.8669 14.2564 21.4658 14.2039C21.3613 14.196 21.2617 14.1569 21.1798 14.0917C21.098 14.0265 21.0379 13.9382 21.0072 13.8384C20.9801 13.7441 20.982 13.6439 21.0128 13.5507C21.0435 13.4575 21.1016 13.3756 21.1796 13.3157Z" fill="white"/>
<path d="M24.2836 11.8943L23.0692 12.3329C23.0692 12.3329 22.9261 12.3694 22.8968 12.4462C22.8674 12.523 22.8968 12.724 23.0582 12.735C23.1389 12.7605 23.2123 12.735 23.271 12.9031L24.3716 15.9735C24.445 16.1562 24.3716 16.1818 24.3239 16.2439C24.2875 16.2945 24.2725 16.3574 24.2821 16.4189C24.2917 16.4804 24.3252 16.5357 24.3753 16.5729C24.4074 16.5902 24.4434 16.5992 24.4799 16.5992C24.5164 16.5992 24.5523 16.5902 24.5844 16.5729L25.7988 16.1306C26.1657 16.0137 25.9932 15.692 25.7988 15.7213C25.7549 15.7113 25.7148 15.6892 25.6829 15.6576C25.6511 15.6259 25.629 15.5859 25.619 15.5421L24.4817 12.4791C24.4817 12.4791 24.4083 12.2963 24.5257 12.2269C24.6431 12.1574 24.6138 11.7773 24.2836 11.8943Z" fill="white"/>
<path d="M13.3099 15.8339C13.3099 15.8339 13.1668 15.8704 13.1374 15.9508C13.1272 15.9811 13.1232 16.013 13.1257 16.0448C13.1282 16.0766 13.137 16.1076 13.1517 16.1359C13.1664 16.1642 13.1867 16.1893 13.2114 16.2096C13.236 16.2299 13.2645 16.2451 13.2952 16.2542C13.3796 16.2542 13.453 16.2542 13.5117 16.4224L14.6306 19.4927C14.6893 19.6609 14.6306 19.6865 14.5719 19.7449C14.4692 19.8509 14.5719 20.0374 14.6416 20.0776C14.7033 20.0996 14.7707 20.0996 14.8324 20.0776L16.0615 19.6426L14.5242 15.3916L13.3099 15.8339Z" fill="white"/>
<path d="M14.7119 15.3298L14.8513 15.7319C15.1051 15.7065 15.3606 15.7574 15.5851 15.8781C15.8052 16.0097 15.9813 16.43 16.2014 16.3533C16.3298 16.3021 16.2858 16.1522 16.2858 16.1522L15.8456 14.9277L14.7119 15.3298Z" fill="white"/>
<path d="M15.3838 17.223L15.5562 17.6616C15.5562 17.6616 15.78 17.5665 16.0258 17.965C16.1396 18.1185 16.1946 18.2062 16.323 18.1514C16.3632 18.138 16.3965 18.1094 16.4157 18.0718C16.4349 18.0342 16.4385 17.9906 16.4257 17.9503L15.8791 16.4407C15.872 16.4244 15.8616 16.4096 15.8486 16.3973C15.8356 16.3851 15.8202 16.3756 15.8034 16.3694C15.7865 16.3632 15.7687 16.3606 15.7508 16.3615C15.7329 16.3625 15.7154 16.367 15.6993 16.3749C15.5892 16.4115 15.5709 16.5248 15.5966 16.6747C15.6773 17.1352 15.3838 17.223 15.3838 17.223Z" fill="white"/>
<path d="M17.3499 19.1717L16.9097 17.9473C16.9048 17.9276 16.8958 17.9092 16.8832 17.8932C16.8706 17.8773 16.8548 17.8642 16.8367 17.8549C16.8187 17.8456 16.7988 17.8402 16.7785 17.8391C16.7582 17.838 16.7379 17.8412 16.7189 17.8486C16.5025 17.907 16.6345 18.3457 16.5465 18.5796C16.4526 18.8111 16.2933 19.0104 16.0879 19.1535L16.2456 19.5592L17.3499 19.1717Z" fill="white"/>
<path d="M26.3275 11.1553L25.1131 11.6012C25.1131 11.6012 24.9847 11.6378 24.9554 11.7145C24.926 11.7913 24.9554 11.9887 25.1168 12.0069C25.1975 12.0289 25.2526 12.0069 25.3296 12.1714L26.4302 15.2418C26.5073 15.4245 26.4302 15.4355 26.3715 15.5086C26.3128 15.5817 26.3715 15.8047 26.4376 15.8412C26.5051 15.8658 26.5792 15.8658 26.6467 15.8412L27.8611 15.4136L26.3275 11.1553Z" fill="white"/>
<path d="M27.6329 11.0937C27.2793 10.9544 26.8858 10.9544 26.5322 11.0937L26.6203 11.2947C26.7487 11.2728 27.277 11.2947 27.4127 11.6603C27.5485 12.0258 28.2089 13.8534 28.385 14.3578C28.5207 14.6941 28.0988 15.0632 27.9851 15.0888L28.0731 15.3045C28.2746 15.2428 28.4583 15.1339 28.6089 14.9871C28.7596 14.8402 28.8727 14.6595 28.9389 14.4601C29.1515 13.8693 29.1515 13.2233 28.9389 12.6325C28.8422 12.2989 28.6759 11.9894 28.4508 11.7242C28.2257 11.459 27.947 11.2442 27.6329 11.0937Z" fill="white"/>
<path d="M33.0592 13.4655C33.1204 13.4903 33.1888 13.4903 33.25 13.4655L34.4644 13.0232L32.9418 8.7832L31.7275 9.22548C31.7275 9.22548 31.5844 9.26203 31.555 9.33879C31.5257 9.41555 31.555 9.61293 31.7128 9.62755C31.7972 9.65314 31.8705 9.62755 31.9292 9.79569L33.0299 12.8661C33.1069 13.0488 33.0299 13.0598 32.9859 13.1365C32.9679 13.1626 32.9555 13.1921 32.9494 13.2231C32.9434 13.2541 32.9438 13.2861 32.9507 13.3169C32.9576 13.3478 32.9708 13.3769 32.9894 13.4025C33.0081 13.428 33.0319 13.4495 33.0592 13.4655Z" fill="white"/>
<path d="M33.2135 8.92206C33.3566 8.90379 33.9069 8.92206 34.0243 9.26931C34.1784 9.68965 34.8168 11.4844 34.9929 11.9851C35.1139 12.3214 34.7067 12.6906 34.582 12.7162L34.6663 12.9355C34.8694 12.8757 35.0545 12.767 35.2055 12.6192C35.3565 12.4713 35.4687 12.2887 35.5322 12.0875C35.758 11.499 35.758 10.8483 35.5322 10.2599C35.4437 9.92287 35.2832 9.60891 35.0615 9.33951C34.8399 9.07012 34.5624 8.85165 34.2481 8.6991C33.8964 8.55611 33.5037 8.54959 33.1475 8.68082L33.2135 8.92206Z" fill="white"/>
<path d="M29.1562 10.1399L29.2113 10.648L30.5284 12.8631L29.967 13.0641L30.0221 13.4588L30.7558 13.1993L30.9833 13.5941C31.0934 13.7659 31.0383 13.7769 30.9833 13.8353C30.9614 13.8588 30.9451 13.8869 30.9357 13.9176C30.9263 13.9482 30.924 13.9806 30.9289 14.0122C30.9339 14.0439 30.946 14.074 30.9643 14.1004C30.9826 14.1267 31.0066 14.1486 31.0347 14.1643C31.1117 14.2228 31.2401 14.1643 31.2401 14.1643L32.4581 13.7257C32.7883 13.6051 32.6489 13.2871 32.4581 13.298C32.4178 13.2869 32.3805 13.2665 32.3493 13.2386C32.3181 13.2107 32.2938 13.176 32.2784 13.1372L30.2055 9.77441L29.1562 10.1399Z" fill="white"/>
<path d="M29.2764 14.6831C29.3094 14.7854 29.4048 14.8402 29.5516 14.7891L30.2523 14.5259C30.3016 14.5099 30.3427 14.4753 30.3667 14.4296C30.3907 14.3838 30.3957 14.3304 30.3807 14.281C30.3184 14.1275 30.2266 14.1677 30.0762 14.1384C30.0285 14.1165 29.9295 14.0763 29.8928 13.8606L29.6139 11.6675L29.2471 11.0498C29.2471 11.0498 29.5589 13.9995 29.5589 14.1129C29.5579 14.1613 29.5458 14.2089 29.5236 14.2519C29.5013 14.295 29.4695 14.3325 29.4305 14.3614C29.3278 14.4747 29.2324 14.5259 29.2764 14.6831Z" fill="white"/>
<path d="M12.9032 20.7647L12.8482 20.242L11.0138 17.3179C10.9258 17.1315 11.0138 17.1241 11.0762 17.0474C11.093 17.0224 11.1045 16.9943 11.1101 16.9647C11.1156 16.9351 11.1152 16.9048 11.1087 16.8754C11.1021 16.846 11.0897 16.8183 11.0722 16.7938C11.0546 16.7694 11.0323 16.7487 11.0065 16.733C10.9441 16.6965 10.812 16.733 10.812 16.733L9.58668 17.157C9.25282 17.2886 9.41057 17.5957 9.61969 17.5847C9.66214 17.5922 9.70171 17.6111 9.73407 17.6395C9.76642 17.6678 9.79032 17.7045 9.80313 17.7455L11.8576 21.1266L12.9032 20.7647Z" fill="white"/>
<path d="M12.6087 16.5323C12.6931 16.4445 12.8435 16.3788 12.7812 16.2252C12.7572 16.1753 12.7149 16.1364 12.663 16.1167C12.6111 16.097 12.5536 16.0979 12.5024 16.1192L11.8016 16.3824C11.7784 16.3895 11.7568 16.4011 11.7382 16.4165C11.7195 16.432 11.7041 16.4509 11.6928 16.4724C11.6816 16.4938 11.6747 16.5172 11.6726 16.5413C11.6705 16.5654 11.6732 16.5897 11.6805 16.6127C11.7246 16.7625 11.8346 16.7223 11.963 16.7699C12.0327 16.7918 12.1098 16.832 12.1612 17.0477L12.429 19.2115L12.8215 19.8804L12.5244 17.1427C12.5172 17.0356 12.5172 16.9281 12.5244 16.821C12.5161 16.7177 12.5461 16.615 12.6087 16.5323Z" fill="white"/>
<path d="M21.0879 17.5782C20.9522 17.3553 20.7871 17.5161 20.6807 17.4284C20.5743 17.3407 19.8699 16.4963 19.58 16.1746C19.7554 16.0009 19.8736 15.7782 19.9188 15.5359C19.964 15.2937 19.9341 15.0435 19.8332 14.8186C19.3269 13.4296 17.8594 14.2008 17.8594 14.2008L17.9584 14.453C18.0648 14.4311 18.4244 14.3361 18.5601 14.687C18.6261 14.9063 18.8903 15.6081 18.971 15.8603C19.0517 16.1125 18.7656 16.3757 18.6555 16.4159L18.7509 16.6681C18.7509 16.6681 19.8515 17.9511 19.9286 18.0388C19.9542 18.0826 19.9937 18.1167 20.0407 18.1358C20.0878 18.155 20.14 18.1581 20.189 18.1448L20.9778 17.8743C21.0439 17.8341 21.1613 17.6989 21.0879 17.5782Z" fill="white"/>
<path d="M19.0849 18.0934C19.0438 18.0827 19.0058 18.0626 18.974 18.0347C18.9421 18.0067 18.9173 17.9718 18.9015 17.9325L17.5954 14.2773L16.392 14.7342C16.392 14.7342 16.2453 14.7854 16.2196 14.8476C16.1939 14.9097 16.2196 15.1253 16.3773 15.1363C16.4617 15.1363 16.5351 15.1363 16.5938 15.3045L17.6944 18.3712C17.7678 18.5576 17.6944 18.5685 17.6321 18.6453C17.6022 18.6963 17.5928 18.7567 17.6057 18.8143C17.6186 18.8719 17.6529 18.9225 17.7018 18.956C17.7328 18.973 17.767 18.9837 17.8023 18.9875C17.8375 18.9913 17.8732 18.988 17.9072 18.9779L19.1289 18.5466C19.4664 18.4041 19.327 18.0824 19.0849 18.0934Z" fill="white"/>
<path d="M35.1324 8.39614C35.2168 8.42172 35.2901 8.39614 35.3488 8.56427L36.4715 11.6346C36.5265 11.8174 36.4715 11.8247 36.4091 11.9051C36.3064 12.0075 36.4091 12.1975 36.4752 12.2341C36.5375 12.2591 36.6072 12.2591 36.6696 12.2341L37.9023 11.7918L36.3614 7.56641L35.1471 8.00869C35.1471 8.00869 35.0076 8.04158 34.9746 8.122C34.9416 8.20241 34.982 8.38151 35.1324 8.39614Z" fill="white"/>
<path d="M37.4063 8.03433C37.6265 8.16958 37.8026 8.5753 38.019 8.51316C38.1658 8.46199 38.1107 8.29385 38.1107 8.29385L37.6705 7.08398L36.5479 7.48606L36.6909 7.88813C36.9385 7.8685 37.1865 7.9192 37.4063 8.03433Z" fill="white"/>
<path d="M37.5538 8.51622C37.4254 8.57105 37.4071 8.66609 37.4328 8.83057C37.5135 9.29113 37.2236 9.36423 37.2236 9.36423L37.3924 9.81747C37.3924 9.81747 37.6162 9.70782 37.8657 10.1026C37.9721 10.2744 38.0308 10.3621 38.1592 10.3073C38.1993 10.2939 38.2326 10.2653 38.2518 10.2277C38.2711 10.1901 38.2747 10.1465 38.2619 10.1062L37.7116 8.59664C37.7 8.56614 37.6774 8.54102 37.6482 8.52616C37.6191 8.5113 37.5854 8.50776 37.5538 8.51622Z" fill="white"/>
<path d="M38.5587 9.99013C38.3533 10.0669 38.4744 10.4982 38.3826 10.7212C38.2975 10.9524 38.144 11.1525 37.9424 11.295L38.0855 11.7008L39.2044 11.2987L38.7642 10.0925C38.7642 10.0925 38.7055 9.9353 38.5587 9.99013Z" fill="white"/>
<path d="M10.0774 23.3166C9.85177 23.2543 9.61335 23.2543 9.3877 23.3166L9.51977 23.6821C9.68579 23.6894 9.84835 23.7318 9.99671 23.8064C10.1771 23.9022 10.3279 24.0449 10.4333 24.2194C10.5544 24.4241 10.6534 24.563 10.8002 24.5265C10.9469 24.4899 10.8625 24.2414 10.8002 24.1061C10.7378 23.9709 10.4773 23.2325 10.4773 23.2325C10.4773 23.2325 10.4186 22.9547 10.2352 23.0169C10.0517 23.079 10.1545 23.2033 10.1471 23.2545C10.1398 23.3056 10.1288 23.3349 10.0774 23.3166Z" fill="white"/>
<path d="M10.7383 27.4179L10.8667 27.7834C11.0441 27.7119 11.2053 27.6057 11.3408 27.4711C11.4764 27.3366 11.5836 27.1764 11.6561 27C11.7285 26.8235 11.7648 26.6344 11.7629 26.4438C11.7609 26.2532 11.7206 26.0649 11.6445 25.89C11.3693 25.1187 11.0245 25.0201 10.7493 24.9141C10.3732 24.7953 9.98955 24.7012 9.60099 24.6326C9.49944 24.621 9.40344 24.5803 9.32465 24.5154C9.24585 24.4505 9.18764 24.3643 9.15707 24.2671C9.12481 24.1705 9.12451 24.0662 9.15621 23.9695C9.18791 23.8728 9.24994 23.7888 9.33317 23.7298L9.2011 23.3643C9.03249 23.4297 8.87901 23.5286 8.74995 23.655C8.62089 23.7814 8.51896 23.9326 8.45034 24.0994C8.38171 24.2662 8.34784 24.4452 8.35076 24.6254C8.35368 24.8057 8.39335 24.9835 8.46734 25.148C8.51211 25.3578 8.6054 25.5542 8.73979 25.7217C8.87417 25.8893 9.04595 26.0232 9.24145 26.113C9.59869 26.2321 9.96765 26.313 10.3421 26.3542C10.5916 26.4273 10.8594 26.4675 10.9658 26.7709C11.0175 26.8873 11.0228 27.0191 10.9806 27.1392C10.9383 27.2594 10.8517 27.3591 10.7383 27.4179Z" fill="white"/>
<path d="M20.336 24.2777L20.2663 23.7514L18.4796 20.8272C18.3916 20.6371 18.4796 20.6152 18.542 20.5531C18.5683 20.5006 18.5757 20.4408 18.563 20.3836C18.5503 20.3264 18.5183 20.2752 18.4723 20.2387C18.443 20.223 18.4102 20.2148 18.3769 20.2148C18.3436 20.2148 18.3109 20.223 18.2815 20.2387L17.1259 20.6445C16.7957 20.7578 16.9498 21.0794 17.1626 21.0502C17.28 21.0794 17.3387 21.2293 17.3387 21.2293L19.3271 24.625L20.336 24.2777Z" fill="white"/>
<path d="M20.1412 19.7491C20.1082 19.6468 20.0128 19.6066 19.8844 19.6431L19.2203 19.8917C19.2203 19.8917 19.0369 19.9575 19.0956 20.122C19.1543 20.2865 19.2497 20.2353 19.3817 20.2791C19.4294 20.2791 19.5248 20.3413 19.5615 20.5533L19.866 22.7098L20.2329 23.3751L19.9174 20.6666C19.9174 20.6666 19.9174 20.44 19.899 20.3413C19.9 20.2414 19.9292 20.1439 19.9834 20.0598C20.0935 19.9538 20.2035 19.9173 20.1412 19.7491Z" fill="white"/>
<path d="M24.7238 22.6294C24.7528 22.6442 24.7848 22.6519 24.8174 22.6519C24.8499 22.6519 24.882 22.6442 24.9109 22.6294L26.0519 22.2017L24.533 17.9873L23.3627 18.3857C23.3627 18.3857 23.2343 18.4223 23.2049 18.499C23.1947 18.5295 23.1906 18.5617 23.1931 18.5937C23.1955 18.6258 23.2043 18.657 23.219 18.6856C23.2337 18.7142 23.254 18.7396 23.2786 18.7603C23.3033 18.781 23.3319 18.7965 23.3627 18.8061C23.4471 18.8061 23.5021 18.7878 23.5791 18.9742L24.6798 22.0409C24.7532 22.2091 24.6798 22.2346 24.6358 22.3114C24.5917 22.3882 24.6578 22.5892 24.7238 22.6294Z" fill="white"/>
<path d="M26.1689 21.9311L26.2349 22.1468C26.4298 22.0902 26.6074 21.986 26.7515 21.8436C26.8957 21.7013 27.0019 21.5253 27.0604 21.3317C27.2623 20.7373 27.2519 20.0917 27.0311 19.5041C26.936 19.1712 26.7755 18.8605 26.5588 18.5901C26.3422 18.3196 26.0737 18.0948 25.769 17.9287C25.4355 17.7872 25.0606 17.7768 24.7197 17.8994L24.7858 18.1151C24.9252 18.0968 25.4425 18.1151 25.5746 18.4806C25.714 18.901 26.3707 20.6957 26.5504 21.1818C26.6642 21.5364 26.2973 21.8909 26.1689 21.9311Z" fill="white"/>
<path d="M28.418 16.5364L28.4913 16.7375C28.6283 16.738 28.7619 16.7794 28.875 16.8563C28.9881 16.9332 29.0755 17.042 29.126 17.1688C29.2801 17.6037 29.9515 19.4313 30.1423 19.954C30.1895 20.0804 30.1899 20.2193 30.1435 20.3459C30.0971 20.4725 30.0069 20.5785 29.8891 20.6449L29.9735 20.8788C30.1437 20.8092 30.2954 20.7014 30.417 20.5638C30.5385 20.4263 30.6266 20.2626 30.6743 20.0856C30.8762 19.4806 30.862 18.8245 30.6339 18.2288C30.5385 17.8855 30.3751 17.5647 30.1533 17.2854C29.9315 17.006 29.6558 16.7737 29.3425 16.6022C29.2025 16.5249 29.0472 16.479 28.8875 16.4676C28.7278 16.4563 28.5676 16.4797 28.418 16.5364Z" fill="white"/>
<path d="M28.6167 20.82C28.7686 20.9213 28.941 20.9882 29.1216 21.016C29.3023 21.0438 29.4868 21.0318 29.6623 20.9809L29.5779 20.7616C29.4473 20.7803 29.3141 20.7544 29.2002 20.688C29.0862 20.6216 28.9982 20.5187 28.9506 20.396C28.7525 19.8916 28.0884 18.0458 27.9343 17.6108C27.9007 17.4799 27.9042 17.3423 27.9444 17.2132C27.9845 17.0842 28.0598 16.9688 28.1618 16.8797L28.0884 16.6787C27.9368 16.7306 27.7974 16.8129 27.6788 16.9203C27.5602 17.0278 27.4649 17.1583 27.3987 17.3037C27.2675 17.6334 27.2035 17.9858 27.2105 18.3404C27.2174 18.6949 27.2951 19.0446 27.4391 19.3689C27.6571 19.9706 28.0719 20.4817 28.6167 20.82Z" fill="white"/>
<path d="M15.8828 25.8025C15.9439 25.8276 16.0125 25.8276 16.0736 25.8025L17.2292 25.4077L15.9085 21.7525C15.9085 21.7525 15.8351 21.5661 15.9342 21.493C15.9703 21.4589 15.9928 21.4129 15.9975 21.3635C16.0021 21.3141 15.9886 21.2647 15.9595 21.2245C15.9303 21.1843 15.8875 21.156 15.839 21.1449C15.7905 21.1337 15.7395 21.1405 15.6957 21.164L14.5584 21.5624C14.5584 21.5624 14.43 21.599 14.4006 21.6794C14.3808 21.7405 14.3858 21.8069 14.4146 21.8643C14.4434 21.9217 14.4937 21.9656 14.5547 21.9864C14.6244 21.9864 14.6941 21.9864 14.7528 22.1473L15.8755 25.2213C15.9342 25.404 15.8755 25.4114 15.8204 25.4735C15.7886 25.5264 15.7774 25.5892 15.7889 25.6498C15.8004 25.7104 15.8338 25.7647 15.8828 25.8025Z" fill="white"/>
<path d="M13.8603 26.5293C13.919 26.5841 14.0511 26.5293 14.0511 26.5293L15.2912 26.0906C15.625 25.959 15.4819 25.652 15.2581 25.6666C15.1781 25.6372 15.1125 25.5783 15.0747 25.5021L13.0202 22.1211L11.9893 22.4866L12.0223 23.0093L13.3467 25.2353L12.778 25.4254L12.8331 25.8202L13.5668 25.5606L13.8126 25.9554C13.9044 26.1272 13.853 26.1382 13.8126 26.2003C13.7924 26.2243 13.7775 26.2524 13.7689 26.2825C13.7603 26.3127 13.7582 26.3443 13.7627 26.3754C13.7672 26.4064 13.7782 26.4362 13.795 26.4627C13.8118 26.4892 13.8341 26.5119 13.8603 26.5293Z" fill="white"/>
<path d="M12.0809 27.0339C12.1285 27.1509 12.2129 27.1765 12.3597 27.1253L13.0604 26.8804C13.0604 26.8804 13.2585 26.8146 13.1815 26.6501C13.1044 26.4856 13.0274 26.5331 12.8953 26.4929C12.8293 26.471 12.7486 26.4271 12.7156 26.2151L12.4331 24.022L12.0662 23.4043C12.0662 23.4043 12.3597 26.3504 12.3597 26.4637C12.362 26.5108 12.3532 26.5578 12.3341 26.6009C12.315 26.6441 12.2861 26.6822 12.2496 26.7122C12.1469 26.8292 12.0185 26.884 12.0809 27.0339Z" fill="white"/>
<path d="M31.8012 20.1511L33.0156 19.7088C33.3825 19.5808 33.21 19.2738 33.0156 19.2848C32.9709 19.2774 32.9289 19.2588 32.8936 19.2306C32.8583 19.2025 32.8308 19.1657 32.8138 19.1239L31.4967 15.4688L30.2823 15.911C30.2823 15.911 30.1539 15.9512 30.1209 16.028C30.0879 16.1048 30.1209 16.3021 30.2823 16.3168C30.3667 16.3423 30.4401 16.3168 30.4951 16.4995L31.5958 19.5699C31.6691 19.7563 31.5958 19.7636 31.5334 19.8404C31.5033 19.8919 31.4938 19.9529 31.5067 20.0111C31.5196 20.0693 31.554 20.1206 31.6031 20.1547C31.668 20.1737 31.7371 20.1724 31.8012 20.1511Z" fill="white"/>
<path d="M22.504 23.0753C22.4856 23.1012 22.4727 23.1305 22.4661 23.1616C22.4594 23.1926 22.4592 23.2246 22.4654 23.2557C22.4716 23.2868 22.484 23.3164 22.502 23.3425C22.52 23.3687 22.5431 23.3909 22.57 23.4079C22.6471 23.4627 22.7791 23.4079 22.7791 23.4079L23.9935 22.9656C24.3237 22.8523 24.188 22.5307 23.9935 22.5599C23.9495 22.5461 23.9089 22.523 23.8747 22.492C23.8405 22.4611 23.8134 22.4232 23.7954 22.3808L21.7409 18.9961L20.71 19.3616L20.7613 19.888L22.0784 22.0994L21.5244 22.2894L21.5648 22.6988L22.2985 22.4429L22.5443 22.8377C22.603 23.0022 22.5664 23.0168 22.504 23.0753Z" fill="white"/>
<path d="M20.7942 23.9125C20.8309 24.0149 20.9263 24.0551 21.0584 24.0003L21.7555 23.7407C21.7555 23.7407 21.9572 23.6786 21.8985 23.5105C21.8398 23.3423 21.7261 23.3971 21.594 23.3533C21.5427 23.3533 21.4473 23.3058 21.4179 23.0755L21.1354 20.8824L20.7686 20.2646C20.7686 20.2646 21.0767 23.229 21.0804 23.3277C21.0723 23.4242 21.0262 23.5136 20.952 23.5763C20.8639 23.6896 20.7502 23.7444 20.7942 23.9125Z" fill="white"/>
<path d="M8.79353 11.1742C8.7162 11.1754 8.64089 11.1496 8.58074 11.1011L7.17927 10.2531L6.87109 10.7575L8.14416 11.5288C8.25747 11.6016 8.38115 11.6571 8.51104 11.6933C8.60866 11.717 8.71058 11.717 8.80821 11.6933C8.89784 11.6694 8.97911 11.6214 9.04301 11.5544C9.12231 11.4765 9.19023 11.3879 9.24479 11.2912C9.30517 11.1978 9.35325 11.0971 9.38787 10.9915C9.41336 10.9031 9.41336 10.8093 9.38787 10.721C9.36437 10.624 9.31638 10.5347 9.24846 10.4615C9.1577 10.3619 9.0511 10.2779 8.93295 10.2129L7.67089 9.44531L7.36271 9.94973L8.76785 10.7977C8.85957 10.8562 8.9146 10.9074 8.92928 10.9549C8.93781 10.9778 8.9406 11.0024 8.9374 11.0266C8.9342 11.0508 8.92512 11.0739 8.91093 11.0938C8.89907 11.1154 8.88226 11.134 8.86186 11.148C8.84147 11.1619 8.81806 11.1709 8.79353 11.1742Z" fill="white"/>
<path d="M9.51331 7.25143L9.04004 7.71199L10.6396 9.32758L11.0322 8.94013L10.049 7.94227L10.0526 7.93861L11.3183 8.66234L11.7843 8.20544L10.1884 6.58984L9.79214 6.97729L10.7754 7.97516L10.7717 7.97882L9.51331 7.25143Z" fill="white"/>
<path d="M12.4058 4.98845L11.9033 5.30469L13.1181 7.22066L13.6206 6.90442L12.4058 4.98845Z" fill="white"/>
<path d="M15.5484 3.53418L14.29 4.01301L15.1008 6.12937L15.6548 5.92102L15.321 5.04743L15.9813 4.79522L15.8162 4.36391L15.1559 4.61612L15.0165 4.25425L15.7209 3.98377L15.5484 3.53418Z" fill="white"/>
<path d="M18.7105 4.75134L18.8242 5.11686L19.4479 5.03279L18.5931 2.87988L17.8593 2.98223L17.6318 5.30328L18.2262 5.21921V4.81714L18.7105 4.75134ZM18.2775 3.39161L18.571 4.32003L18.2445 4.36755L18.2775 3.39161Z" fill="white"/>
<path d="M22.0015 3.70226L22.5738 3.76075V3.61819C22.5888 3.51885 22.5888 3.41782 22.5738 3.31847C22.5588 3.23232 22.5236 3.15092 22.4711 3.08088C22.4149 3.00993 22.3434 2.95247 22.2619 2.91274C22.1567 2.86836 22.0454 2.84001 21.9318 2.82867C21.8006 2.81245 21.6677 2.81988 21.5392 2.8506C21.4326 2.87958 21.3377 2.9409 21.2677 3.02605C21.1842 3.13393 21.1254 3.25868 21.0953 3.39157C21.0493 3.56665 21.0174 3.7451 20.9999 3.92523C20.9798 4.10605 20.9712 4.28796 20.9742 4.46985C20.9782 4.59601 21.0068 4.72017 21.0586 4.83537C21.1065 4.93436 21.1867 5.01424 21.2861 5.062C21.4117 5.12094 21.5474 5.15566 21.6859 5.16434C21.7786 5.17531 21.8722 5.17531 21.9648 5.16434C22.0552 5.15437 22.142 5.12304 22.2179 5.07296C22.2979 5.01578 22.3633 4.94065 22.4087 4.85365C22.4664 4.73935 22.5025 4.61545 22.5151 4.48813L22.5334 4.31999L21.9611 4.26151C21.9611 4.36751 21.9391 4.45889 21.9244 4.52834C21.919 4.57185 21.9091 4.61471 21.8951 4.65627C21.8833 4.68996 21.8616 4.71928 21.8327 4.74034C21.8055 4.7577 21.7728 4.76423 21.741 4.75861C21.7024 4.75768 21.6656 4.74197 21.6383 4.71475C21.609 4.67688 21.5924 4.63089 21.5906 4.58317C21.5831 4.50292 21.5831 4.42216 21.5906 4.34192C21.5906 4.24323 21.5906 4.1153 21.6236 3.9764C21.6566 3.83751 21.6529 3.69861 21.6676 3.61088C21.6787 3.53052 21.6959 3.45109 21.719 3.3733C21.7327 3.32857 21.758 3.28824 21.7923 3.25633C21.8256 3.23726 21.8643 3.22955 21.9024 3.2344C21.9275 3.23565 21.9518 3.24383 21.9725 3.25803C21.9933 3.27223 22.0096 3.29189 22.0198 3.31481C22.0387 3.40276 22.0387 3.4937 22.0198 3.58164L22.0015 3.70226Z" fill="white"/>
<path d="M24.7124 5.10622L24.1731 4.91615L24.1438 4.98925C24.1057 5.08447 24.0882 5.18659 24.0924 5.28898C24.0959 5.37201 24.1212 5.45267 24.1658 5.52291C24.2142 5.5946 24.2781 5.65456 24.3529 5.69836C24.4469 5.75467 24.5465 5.80121 24.6501 5.83726C24.8452 5.92307 25.064 5.93984 25.2701 5.88478C25.3603 5.84763 25.4404 5.78991 25.5042 5.71627C25.5679 5.64263 25.6134 5.55512 25.6369 5.46077C25.6822 5.35351 25.6974 5.23603 25.681 5.12084C25.6681 5.02911 25.6342 4.94155 25.5819 4.86498C25.5324 4.79047 25.4732 4.72286 25.4058 4.66394C25.3398 4.60546 25.2774 4.55063 25.2224 4.4958C25.1697 4.44849 25.1251 4.39293 25.0903 4.33132C25.0767 4.30146 25.0697 4.26906 25.0697 4.23628C25.0697 4.20351 25.0767 4.1711 25.0903 4.14125C25.1064 4.09389 25.1372 4.0529 25.1784 4.02428C25.2019 4.01116 25.2284 4.00426 25.2554 4.00426C25.2824 4.00426 25.3089 4.01116 25.3324 4.02428C25.3569 4.03202 25.3788 4.04636 25.3957 4.06571C25.4125 4.08506 25.4236 4.10868 25.4278 4.13394C25.4356 4.19453 25.4281 4.25611 25.4058 4.31304V4.36056L25.9305 4.54697C25.9684 4.45924 25.988 4.36471 25.988 4.26918C25.988 4.17365 25.9684 4.07912 25.9305 3.99139C25.8799 3.9022 25.812 3.82394 25.7307 3.76119C25.6495 3.69843 25.5565 3.65243 25.4572 3.62587C25.3642 3.58726 25.2644 3.56738 25.1637 3.56738C25.0629 3.56738 24.9632 3.58726 24.8702 3.62587C24.7818 3.66869 24.7035 3.72955 24.6403 3.80449C24.5771 3.87942 24.5304 3.96676 24.5033 4.06083C24.4592 4.16328 24.4428 4.27542 24.4556 4.38615C24.4689 4.47492 24.5014 4.55974 24.551 4.6347C24.5993 4.70465 24.656 4.76848 24.7198 4.82477L24.8995 4.98925C24.9509 5.03459 24.9932 5.08915 25.0243 5.15008C25.037 5.18016 25.0435 5.21248 25.0435 5.24512C25.0435 5.27776 25.037 5.31007 25.0243 5.34015C25.0062 5.39343 24.9715 5.43955 24.9252 5.47174C24.9009 5.48454 24.8738 5.49123 24.8463 5.49123C24.8188 5.49123 24.7918 5.48454 24.7675 5.47174C24.7428 5.46362 24.7201 5.45027 24.7011 5.4326C24.6821 5.41493 24.6672 5.39337 24.6574 5.36939C24.6315 5.30109 24.6315 5.2257 24.6574 5.15739L24.7124 5.10622Z" fill="white"/>
<path d="M20.0026 31.9284C20.0483 31.901 20.0882 31.865 20.12 31.8224C20.1524 31.7767 20.1771 31.7261 20.1933 31.6725C20.2117 31.6169 20.2228 31.5592 20.2264 31.5007C20.2345 31.4256 20.2274 31.3497 20.2053 31.2774C20.1833 31.2052 20.1467 31.1382 20.0979 31.0804C20.0374 31.0212 19.9657 30.9747 19.887 30.9433C19.8083 30.9119 19.7241 30.8964 19.6394 30.8976L18.7478 30.8428L18.5938 33.1053L19.4853 33.1602C19.5926 33.1702 19.7008 33.1603 19.8044 33.1309C19.8867 33.1075 19.9621 33.0649 20.0246 33.0066C20.0843 32.9498 20.1295 32.8797 20.1566 32.802C20.1873 32.716 20.2058 32.6262 20.2117 32.5351C20.219 32.4769 20.219 32.4179 20.2117 32.3597C20.1987 32.3017 20.1764 32.2461 20.1456 32.1952C20.1135 32.1465 20.0725 32.1043 20.0246 32.0709C19.9687 32.0332 19.9045 32.0094 19.8375 32.0015C19.8968 31.9881 19.9528 31.9632 20.0026 31.9284ZM19.5366 32.6594C19.5169 32.6789 19.4934 32.6942 19.4675 32.7043C19.4417 32.7144 19.414 32.719 19.3862 32.7179H19.2211L19.2578 32.166H19.4229C19.4504 32.1677 19.4771 32.1755 19.5012 32.1888C19.5253 32.2021 19.5462 32.2205 19.5623 32.2427C19.6012 32.3065 19.6196 32.3806 19.6151 32.4551C19.6105 32.5296 19.5831 32.6009 19.5366 32.6594ZM19.5696 31.7054C19.5526 31.7263 19.5306 31.7426 19.5056 31.7528C19.4806 31.763 19.4534 31.7668 19.4266 31.7639H19.2835L19.3275 31.3033H19.4706C19.4978 31.304 19.5245 31.3113 19.5481 31.3247C19.5718 31.3381 19.5918 31.3571 19.6063 31.3801C19.6338 31.4317 19.6465 31.4899 19.643 31.5482C19.6355 31.6069 19.6099 31.6619 19.5696 31.7054Z" fill="white"/>
<path d="M23.1099 32.9257L23.7299 32.8233L22.809 30.6777L22.0753 30.802L21.8955 33.1267L22.5082 33.0244V32.6223L22.9961 32.5455L23.1099 32.9257ZM22.5119 32.1727V31.1968L22.831 32.1179L22.5119 32.1727Z" fill="white"/>
<path d="M26.291 31.9646L26.8377 31.7416L25.9755 29.6436L25.4252 29.8702L25.7444 30.6378L25.4068 30.7767L25.0913 30.0054L24.541 30.232L25.4068 32.3265L25.9535 32.1035L25.5976 31.2409L25.9352 31.102L26.291 31.9646Z" fill="white"/>
<path d="M27.7194 28.607L27.2236 28.9336L28.4781 30.824L28.9739 30.4975L27.7194 28.607Z" fill="white"/>
<path d="M31.1961 28.6345L31.6474 28.1922L29.6589 26.9531L29.127 27.4758L30.334 29.4789L30.7779 29.0476L30.5394 28.7222L30.877 28.3933L31.1961 28.6345ZM30.2753 28.3531L29.714 27.5562L30.5064 28.1301L30.2753 28.3531Z" fill="white"/>
</g>
<defs>
<clipPath id="clip0_591_118">
<rect width="170" height="36" fill="white"/>
</clipPath>
</defs>
</svg>
