<?xml version="1.0" standalone="no"?>
<!DOCTYPE svg PUBLIC "-//W3C//DTD SVG 20010904//EN"
 "http://www.w3.org/TR/2001/REC-SVG-20010904/DTD/svg10.dtd">
<svg version="1.0" xmlns="http://www.w3.org/2000/svg"
 width="243.000000pt" height="243.000000pt" viewBox="0 0 243.000000 243.000000"
 preserveAspectRatio="xMidYMid meet">
<metadata>
Created by potrace 1.14, written by Peter Selinger 2001-2017
</metadata>
<g transform="translate(0.000000,243.000000) scale(0.100000,-0.100000)"
fill="#000000" stroke="none">
<path d="M816 2413 c-9 -32 1 -138 17 -168 24 -46 49 -65 237 -174 151 -89
177 -101 197 -92 48 22 339 195 362 215 13 12 30 35 37 53 16 38 21 160 6 175
-7 7 -55 -13 -153 -65 -79 -41 -172 -89 -206 -107 l-62 -32 -206 106 c-113 58
-210 106 -215 106 -5 0 -11 -8 -14 -17z"/>
<path d="M987 1669 c-92 -8 -131 -30 -182 -104 -36 -52 -66 -145 -57 -178 5
-21 38 -36 67 -31 23 4 79 13 155 24 62 9 340 6 383 -4 87 -21 153 -70 179
-135 13 -32 18 -240 6 -247 -5 -3 -120 -7 -256 -9 -253 -4 -274 -5 -377 -32
-235 -59 -351 -220 -341 -472 5 -118 10 -140 47 -216 52 -107 140 -178 271
-220 98 -31 172 -40 328 -39 196 0 320 23 425 78 68 35 146 109 175 167 49 95
52 129 54 554 1 220 -2 420 -6 445 -5 25 -10 55 -13 68 -9 51 -60 139 -109
187 -84 84 -225 142 -396 161 -72 8 -268 10 -353 3z m549 -941 c15 -10 10
-243 -6 -296 -30 -96 -129 -143 -310 -147 -225 -6 -330 58 -335 203 -5 141 63
219 207 240 65 9 429 9 444 0z"/>
</g>
</svg>
